<svg version="1.1" id="Layer_1" xmlns="http://www.w3.org/2000/svg" xmlns:xlink="http://www.w3.org/1999/xlink" x="0px" y="0px"
	 width="100%" viewBox="0 0 147 144" enable-background="new 0 0 147 144" xml:space="preserve">
<path fill="#FFFEFE" opacity="1.000000" stroke="none" 
	d="
M1.000000,87.000000 
	C1.000000,58.368694 1.000000,29.737385 1.000000,1.053039 
	C49.904152,1.053039 98.808372,1.053039 148.000000,1.053039 
	C148.000000,41.353771 148.000000,81.708229 147.560242,122.536888 
	C141.767365,121.999870 136.414230,120.988647 130.753845,119.888840 
	C129.343201,119.186996 128.239807,118.573738 126.926338,117.736435 
	C126.146179,117.340858 125.576096,117.169342 125.003159,116.998764 
	C125.000305,116.999695 124.999306,116.994446 124.877396,116.703888 
	C124.212494,116.180054 123.669502,115.946777 123.107361,115.778351 
	C123.088211,115.843208 123.222778,115.829681 123.070564,115.625839 
	C122.635574,115.234474 122.352798,115.046959 122.064667,114.902130 
	C122.059311,114.944809 122.144119,114.930458 122.142883,114.634422 
	C121.819962,114.136696 121.498268,113.935013 121.170319,113.801582 
	C121.164055,113.869843 121.253441,113.765900 121.109512,113.463158 
	C117.918228,108.879044 114.870888,104.597664 111.643867,99.973999 
	C110.608467,95.810692 109.752754,91.989685 108.964233,87.700760 
	C108.973717,83.756371 108.916008,80.279900 108.847748,76.421875 
	C109.558655,72.693504 110.280113,69.346687 111.160583,65.685791 
	C112.875160,61.903187 114.430733,58.434662 116.250725,54.730309 
	C117.703865,50.283920 119.662827,46.107479 119.851273,41.852615 
	C120.018982,38.065914 118.225746,34.192360 117.110443,30.123661 
	C116.234413,28.933046 115.545898,27.975914 114.951462,26.637030 
	C112.953148,17.638741 106.889160,12.612863 99.168762,8.583239 
	C92.972237,6.530343 86.989723,4.726086 80.942535,3.173712 
	C80.189835,2.980487 79.094337,4.122661 78.195053,4.933447 
	C78.512489,5.472147 78.792557,5.723455 79.310364,6.149601 
	C79.723457,6.874131 79.898819,7.423826 79.784622,8.203065 
	C80.156654,16.161682 80.818230,23.890755 81.492905,31.870100 
	C81.362808,32.418392 81.219612,32.716415 80.723190,33.053810 
	C76.570328,37.476624 73.266174,42.060871 74.079575,48.635765 
	C73.569008,49.598152 73.162895,50.281017 72.402527,50.975483 
	C71.406754,51.754257 70.765236,52.521431 70.062790,53.492882 
	C69.836525,53.957836 69.599892,54.099083 69.013809,54.164017 
	C68.496162,54.483742 68.256668,54.760342 68.026001,55.018906 
	C68.034836,55.000874 68.052170,55.038704 67.795914,54.997013 
	C67.366592,54.951801 67.193542,54.948284 66.972313,54.664997 
	C66.510788,54.099556 66.097443,53.813885 65.684090,53.528214 
	C65.776718,54.350513 65.869339,55.172813 65.925987,56.258492 
	C64.559608,57.294529 63.229202,58.067184 61.572647,58.743080 
	C59.215473,59.039322 57.182301,59.421658 55.153900,59.827801 
	C51.994381,60.460430 48.764843,60.867725 45.694954,61.798977 
	C38.160011,64.084709 30.697605,66.610031 23.219938,69.081093 
	C23.062555,69.133095 23.073574,69.694702 22.789371,70.266106 
	C21.719362,71.039558 20.866013,71.565483 19.701830,72.212875 
	C17.233118,74.512321 15.075240,76.690308 12.610796,78.790909 
	C9.917041,80.834450 7.529850,82.955353 4.873549,85.151291 
	C3.278569,85.564766 3.605070,89.261131 1.000000,87.000000 
z"/>
<path fill="#FEFCFB" opacity="1.000000" stroke="none" 
	d="
M103.000000,145.000000 
	C69.109726,145.000000 35.219452,145.000000 1.000000,145.000000 
	C1.000000,133.981293 1.000000,122.959305 1.225149,111.478462 
	C1.450297,111.019608 1.901007,111.023293 1.983217,111.411217 
	C2.677794,114.116356 3.061722,116.538719 4.048919,118.683403 
	C4.326437,119.286308 6.375543,119.073761 7.871290,119.561890 
	C13.543720,116.294167 18.956909,112.699806 24.555443,109.123070 
	C24.740784,109.140701 25.012228,108.885811 25.309807,108.909897 
	C26.107578,108.628647 26.607773,108.323326 27.450779,108.017868 
	C29.523155,107.067116 31.252718,106.116501 33.182083,105.554070 
	C38.252934,105.956360 43.123981,105.970451 48.345245,106.112640 
	C52.778347,107.513008 56.861233,108.785294 61.130836,110.371704 
	C64.707664,112.996094 68.292511,115.072189 71.432442,117.683304 
	C74.498520,120.233009 77.110283,123.329048 80.019150,126.453171 
	C80.709190,127.169807 81.301582,127.618530 81.955635,128.413147 
	C84.874466,131.615936 87.469482,134.817520 90.656158,137.241180 
	C94.509048,140.171570 98.862930,142.443253 103.000000,145.000000 
z"/>
<path fill="#AB642D" opacity="1.000000" stroke="none" 
	d="
M103.399994,145.000000 
	C98.862930,142.443253 94.509048,140.171570 90.656158,137.241180 
	C87.469482,134.817520 84.874466,131.615936 82.218979,128.214600 
	C81.955727,126.765923 81.490791,125.861687 80.988472,124.617142 
	C80.634857,123.191643 80.318626,122.106453 80.356346,121.048347 
	C82.815987,122.047447 84.921684,123.019470 86.917297,124.220482 
	C86.534164,124.641106 86.261108,124.832741 85.759148,125.154633 
	C85.679352,125.827431 85.828468,126.369980 86.317734,126.983917 
	C89.983894,131.529266 94.482361,133.392700 99.994003,133.426926 
	C100.542473,134.520554 100.968338,135.351440 101.627991,135.902496 
	C103.020424,137.065689 104.535149,138.082474 106.398705,139.452698 
	C105.999687,139.753601 106.497154,139.378448 106.997391,139.378082 
	C107.009888,140.502396 107.019638,141.251923 107.012894,142.375916 
	C106.997597,143.500244 106.998795,144.250122 107.000000,145.000000 
	C105.933327,145.000000 104.866661,145.000000 103.399994,145.000000 
z"/>
<path fill="#F3EBEB" opacity="1.000000" stroke="none" 
	d="
M138.000000,145.000000 
	C135.299728,145.000000 132.599472,145.000000 129.363159,144.613892 
	C128.735947,143.980255 128.644775,143.732742 128.592163,143.489838 
	C128.630692,143.494446 128.701385,143.526474 128.942902,143.613831 
	C129.455231,143.514359 129.726059,143.327560 130.266541,142.919647 
	C133.378952,140.805161 136.221725,138.911774 139.444458,137.010559 
	C141.547302,136.671524 143.270187,136.340302 145.051926,136.147751 
	C145.198959,136.335251 145.287125,136.384079 145.375305,136.432907 
	C145.253326,136.286179 145.131348,136.139450 145.033905,135.658707 
	C146.318756,134.073441 144.175919,130.507431 148.000000,131.000000 
	C148.000000,134.362427 148.000000,137.724869 147.598694,141.543518 
	C143.854324,142.149811 139.681824,139.757263 138.000000,145.000000 
M143.578293,137.518341 
	C143.578293,137.518341 143.473099,137.579575 143.578293,137.518341 
z"/>
<path fill="#EBE1D8" opacity="1.000000" stroke="none" 
	d="
M148.000000,130.555832 
	C144.175919,130.507431 146.318756,134.073441 145.029266,135.662354 
	C145.000076,136.000000 144.993073,136.009094 144.993073,136.009094 
	C143.270187,136.340302 141.547302,136.671524 139.595703,136.701416 
	C140.392456,134.638702 141.417953,132.877304 142.737747,130.953613 
	C143.954514,129.340088 144.876984,127.888847 145.799469,126.437607 
	C144.202194,125.817139 142.646484,124.884438 140.995865,124.664803 
	C139.374557,124.449074 137.656876,124.957718 135.689758,125.163788 
	C134.695648,125.400887 133.993225,125.622681 133.274048,125.477936 
	C132.525223,123.400063 131.793167,121.688744 131.061111,119.977425 
	C136.414230,120.988647 141.767365,121.999870 147.560242,123.005547 
	C148.000000,125.370552 148.000000,127.741112 148.000000,130.555832 
z"/>
<path fill="#F3E7D9" opacity="1.000000" stroke="none" 
	d="
M1.000000,87.466858 
	C3.605070,89.261131 3.278569,85.564766 4.848145,85.568756 
	C4.352427,90.280479 3.613003,94.649773 2.695956,99.296143 
	C2.467638,100.440956 2.416943,101.308693 2.247451,102.366241 
	C2.128655,102.556046 1.948990,102.966263 1.711918,102.979630 
	C1.474846,102.992996 1.000000,103.000000 1.000000,103.000000 
	C1.000000,97.977905 1.000000,92.955818 1.000000,87.466858 
z"/>
<path fill="#9C4F12" opacity="1.000000" stroke="none" 
	d="
M107.250000,145.000000 
	C106.998795,144.250122 106.997597,143.500244 107.386871,142.366287 
	C108.786812,140.743240 109.641350,139.316910 110.849358,138.318069 
	C112.053925,137.322098 113.612854,136.754684 115.011032,136.248611 
	C115.005653,136.497833 114.999390,136.996338 114.695923,137.001038 
	C113.869682,137.110245 113.346916,137.214752 112.824142,137.319260 
	C112.832619,137.495499 112.841087,137.671738 112.849556,137.847977 
	C113.566673,137.899490 114.283798,137.951004 115.261688,138.222046 
	C114.677498,140.290848 113.832527,142.140121 112.654678,143.988220 
	C111.878159,143.973770 111.434517,143.960510 110.904213,143.788116 
	C110.551666,143.730179 110.285797,143.831375 109.716766,143.964966 
	C108.942406,144.331573 108.471199,144.665787 108.000000,145.000000 
	C108.000000,145.000000 107.500000,145.000000 107.250000,145.000000 
z"/>
<path fill="#EAEBE8" opacity="1.000000" stroke="none" 
	d="
M138.486572,145.000000 
	C139.681824,139.757263 143.854324,142.149811 147.598694,141.999878 
	C148.000000,142.962143 148.000000,143.924301 148.000000,145.000000 
	C144.991516,145.000000 141.982330,145.000000 138.486572,145.000000 
z"/>
<path fill="#945B28" opacity="1.000000" stroke="none" 
	d="
M110.990883,143.947235 
	C111.434517,143.960510 111.878159,143.973770 113.105530,143.993057 
	C116.325363,144.036728 118.761452,144.074371 121.154305,144.335388 
	C121.111069,144.558746 121.000000,145.000000 121.000000,145.000000 
	C116.975456,145.000000 112.950912,145.000000 108.463181,145.000000 
	C108.471199,144.665787 108.942406,144.331573 109.959198,143.978546 
	C110.504784,143.959717 110.990883,143.947235 110.990883,143.947235 
z"/>
<path fill="#CEB89D" opacity="1.000000" stroke="none" 
	d="
M1.000000,103.416504 
	C1.000000,103.000000 1.474846,102.992996 1.769239,103.404373 
	C1.967408,105.237488 1.871184,106.659233 1.578378,108.087921 
	C1.381797,108.094872 1.000000,108.000000 1.000000,108.000000 
	C1.000000,106.611000 1.000000,105.222008 1.000000,103.416504 
z"/>
<path fill="#B18469" opacity="1.000000" stroke="none" 
	d="
M121.400063,145.000000 
	C121.000000,145.000000 121.111069,144.558746 121.353104,144.309998 
	C121.595131,144.061249 121.988525,143.968658 122.264618,143.969727 
	C122.723457,143.948730 122.906197,143.926636 123.430023,143.941711 
	C124.222954,144.039597 124.674805,144.100311 125.066223,144.366425 
	C125.005806,144.571823 125.000000,145.000000 125.000000,145.000000 
	C123.933372,145.000000 122.866753,145.000000 121.400063,145.000000 
z"/>
<path fill="#F1E1D2" opacity="1.000000" stroke="none" 
	d="
M125.399879,145.000000 
	C125.000000,145.000000 125.005806,144.571823 125.412590,144.315186 
	C126.730789,143.867447 127.642204,143.676346 128.553619,143.485245 
	C128.644775,143.732742 128.735947,143.980255 128.913574,144.613892 
	C127.933250,145.000000 126.866508,145.000000 125.399879,145.000000 
z"/>
<path fill="#EFDED3" opacity="1.000000" stroke="none" 
	d="
M1.000000,108.375000 
	C1.000000,108.000000 1.381797,108.094872 1.648683,108.452354 
	C1.910715,109.547653 1.905861,110.285477 1.901007,111.023293 
	C1.901007,111.023293 1.450297,111.019608 1.225149,111.009804 
	C1.000000,110.250000 1.000000,109.500000 1.000000,108.375000 
z"/>
<path fill="#EAE5E2" opacity="1.000000" stroke="none" 
	d="
M67.020485,54.944767 
	C67.193542,54.948284 67.366592,54.951801 67.767761,55.369789 
	C70.328285,56.846123 72.660706,57.907990 75.148880,59.210152 
	C75.649910,59.596035 75.995178,59.741611 76.736710,59.846474 
	C78.724243,59.775475 80.315506,59.745197 81.926285,60.101547 
	C80.305717,62.294811 78.665634,64.101448 76.689590,65.955833 
	C75.901703,65.995262 75.449791,65.986954 74.891731,65.698456 
	C74.189819,64.895073 73.594048,64.371895 72.987511,63.483978 
	C72.276932,60.036362 70.720726,60.586147 68.477089,62.105171 
	C66.682899,62.046917 65.333908,62.046917 64.170425,62.046917 
	C63.718182,67.482697 63.322681,72.236435 62.760818,77.220535 
	C62.041100,77.934608 61.487740,78.418312 60.592384,78.952179 
	C59.179443,79.330009 58.108498,79.657684 56.661556,79.950790 
	C55.695198,80.211823 55.087120,80.476936 54.517235,80.807816 
	C49.581188,83.673775 49.559650,85.926445 54.382202,88.845131 
	C56.613937,90.195824 58.787296,91.642967 61.048813,93.452797 
	C61.403870,96.642944 61.990734,99.443298 61.834492,102.201569 
	C61.778339,103.192863 59.932796,104.082802 58.655144,104.789246 
	C55.545467,100.369766 52.684544,96.180054 49.839420,91.610764 
	C46.256283,86.135033 49.575642,81.061188 50.050690,75.668686 
	C51.165127,73.351906 52.133263,71.344154 53.394398,69.161636 
	C55.058132,67.110802 56.428860,65.234741 57.943661,63.036652 
	C59.358086,61.423027 60.628437,60.131432 61.898788,58.839840 
	C63.229202,58.067184 64.559608,57.294529 66.159073,56.147469 
	C66.625580,55.496964 66.823029,55.220863 67.020485,54.944767 
z"/>
<path fill="#E7E0DC" opacity="1.000000" stroke="none" 
	d="
M108.858307,76.803421 
	C108.916008,80.279900 108.973717,83.756371 108.741669,87.569344 
	C108.299988,87.824516 108.148056,87.743187 107.984749,87.340942 
	C107.312225,86.683243 106.630981,86.038757 105.994553,86.080315 
	C104.988701,86.146004 104.012894,86.671722 102.928215,86.772537 
	C102.575584,86.116478 102.319099,85.690651 102.335197,85.046898 
	C101.252617,83.235016 100.021141,81.510574 98.511543,80.079529 
	C96.545250,78.215523 94.358284,76.584297 92.418015,74.566147 
	C92.409889,73.467522 92.250015,72.655670 92.145172,71.534943 
	C92.150787,70.813560 92.101372,70.401047 92.072998,69.566055 
	C92.092140,67.459595 92.090248,65.775612 92.359367,63.934570 
	C92.430954,62.836399 92.231514,61.895287 92.059303,60.935143 
	C92.086533,60.916111 92.147446,60.889591 92.507896,60.855743 
	C93.566231,60.990322 94.264107,61.158756 95.122688,61.618240 
	C97.094528,62.680683 98.905663,63.452076 100.835327,64.556305 
	C102.395332,67.884842 103.836830,70.880554 105.340576,74.210800 
	C106.262131,75.745674 105.531593,79.378906 108.858307,76.803421 
z"/>
<path fill="#A8561B" opacity="1.000000" stroke="none" 
	d="
M105.278336,73.876266 
	C103.836830,70.880554 102.395332,67.884842 101.106529,64.364609 
	C100.493690,61.909687 99.728165,59.979298 99.309296,57.985027 
	C100.119789,56.964054 100.583633,56.006958 101.429413,55.040649 
	C102.943161,54.549278 104.146683,54.186806 105.192062,53.560398 
	C107.468903,52.196072 109.665161,50.697281 111.858963,49.276363 
	C111.684921,48.369705 111.362373,46.689442 111.369125,45.009598 
	C112.137589,45.000740 112.576759,44.991463 113.312271,44.860069 
	C114.410042,44.474003 115.211472,44.210052 116.215332,44.225094 
	C116.273941,47.991436 116.130127,51.478790 115.986305,54.966141 
	C114.430733,58.434662 112.875160,61.903187 110.805397,65.722672 
	C108.620247,68.674515 106.949295,71.275391 105.278336,73.876266 
M109.362541,53.936134 
	C110.296700,53.936134 111.230865,53.936134 112.165024,53.936134 
	C112.149712,53.656380 112.134392,53.376625 112.119072,53.096870 
	C111.265747,53.201118 110.412430,53.305363 109.362541,53.936134 
z"/>
<path fill="#B26428" opacity="1.000000" stroke="none" 
	d="
M20.012665,72.091415 
	C20.866013,71.565483 21.719362,71.039558 23.161482,70.215866 
	C30.552679,68.269386 37.355106,66.620674 44.414604,64.964035 
	C45.342674,64.879944 46.013664,64.803787 47.047630,64.575417 
	C47.933071,64.380432 48.455536,64.337669 48.985909,64.575516 
	C48.997303,65.230713 49.000793,65.605309 49.003796,66.423973 
	C48.916706,68.789291 48.830105,70.710548 48.724022,73.064011 
	C46.131737,72.862564 44.155445,72.708984 42.179150,72.555412 
	C42.069756,72.118652 41.960361,71.681885 41.850967,71.245125 
	C43.214874,70.283745 44.578777,69.322365 45.942684,68.360985 
	C45.630947,68.018562 45.319210,67.676140 45.007473,67.333717 
	C43.671692,68.538643 41.877987,69.508461 41.109741,71.004776 
	C40.015644,73.135750 39.674248,75.653175 38.811516,77.747871 
	C36.989365,77.816818 35.367008,78.143417 32.900364,78.639969 
	C32.896870,78.603027 32.881035,77.543022 32.677299,76.520447 
	C32.452026,75.389778 32.054703,74.293381 31.732311,73.182060 
	C30.478895,73.786880 29.225479,74.391701 27.632025,75.030327 
	C26.263515,75.043983 25.083958,75.339165 24.239656,74.934631 
	C22.724419,74.208626 21.410633,73.062172 20.012665,72.091415 
z"/>
<path fill="#C67121" opacity="1.000000" stroke="none" 
	d="
M116.012894,43.946106 
	C115.211472,44.210052 114.410042,44.474003 113.300720,44.469944 
	C110.894135,40.259380 110.779892,36.270508 112.003525,31.954830 
	C112.488770,30.243433 111.514275,28.118151 111.374298,27.243256 
	C107.802177,27.992466 105.397583,28.496803 102.622833,28.931515 
	C101.504135,24.914917 100.755585,20.967945 100.255585,17.012539 
	C100.504128,17.004107 101.001495,17.000542 101.250160,17.000454 
	C101.498825,17.000366 101.996140,17.003862 102.053879,17.350277 
	C106.360214,20.804054 110.608795,23.911417 114.857384,27.018780 
	C115.545898,27.975914 116.234413,28.933046 117.024612,30.610191 
	C116.755157,35.535503 116.384026,39.740803 116.012894,43.946106 
z"/>
<path fill="#814524" opacity="1.000000" stroke="none" 
	d="
M107.996124,87.661850 
	C108.148056,87.743187 108.299988,87.824516 108.674477,88.037262 
	C109.752754,91.989685 110.608467,95.810692 111.485207,100.249062 
	C111.001602,102.232628 110.496971,103.598831 109.674149,105.018158 
	C108.897842,105.707748 108.439735,106.344223 107.658463,106.953751 
	C105.369415,106.704834 103.403534,106.482857 100.805870,106.189545 
	C101.781540,104.840210 102.879730,103.822884 103.266937,102.583450 
	C103.473877,101.921059 102.454483,100.875549 102.059875,99.652451 
	C104.086166,95.421921 106.041145,91.541885 107.996124,87.661850 
z"/>
<path fill="#C77A27" opacity="1.000000" stroke="none" 
	d="
M19.701832,72.212875 
	C21.410633,73.062172 22.724419,74.208626 24.239656,74.934631 
	C25.083958,75.339165 26.263515,75.043983 27.638287,75.428696 
	C27.987646,76.855400 27.990704,77.917534 27.697639,79.015656 
	C26.211523,80.686035 20.856272,77.684258 22.660442,83.016327 
	C21.894932,83.016411 21.457438,83.016594 20.975315,82.702805 
	C18.620243,82.267914 16.309801,82.146988 13.743737,82.020081 
	C13.317746,82.008598 13.147374,82.003090 12.977711,81.605896 
	C12.958066,80.432243 12.937714,79.650261 12.917362,78.868286 
	C15.075240,76.690308 17.233118,74.512321 19.701832,72.212875 
z"/>
<path fill="#BC7128" opacity="1.000000" stroke="none" 
	d="
M114.951462,26.637030 
	C110.608795,23.911417 106.360214,20.804054 102.055695,17.348522 
	C101.999771,17.000353 101.990532,17.013823 102.305008,16.970268 
	C101.090759,14.929673 99.562027,12.932632 98.029648,10.602150 
	C98.007378,9.823771 97.988754,9.378834 98.318138,8.916172 
	C98.898438,8.901932 99.130722,8.905415 99.362999,8.908897 
	C106.889160,12.612863 112.953148,17.638741 114.951462,26.637030 
z"/>
<path fill="#F6EDE4" opacity="1.000000" stroke="none" 
	d="
M48.978001,64.294907 
	C48.455536,64.337669 47.933071,64.380432 46.795395,64.436600 
	C45.505966,64.623985 44.831749,64.797974 44.157532,64.971970 
	C37.355106,66.620674 30.552679,68.269386 23.378143,69.968338 
	C23.073574,69.694702 23.062555,69.133095 23.219938,69.081093 
	C30.697605,66.610031 38.160011,64.084709 45.694954,61.798977 
	C48.764843,60.867725 51.994381,60.460430 55.153900,59.827801 
	C57.182301,59.421658 59.215473,59.039322 61.572647,58.743076 
	C60.628437,60.131432 59.358086,61.423027 57.590225,62.923569 
	C54.387817,63.519974 51.682907,63.907436 48.978001,64.294907 
z"/>
<path fill="#6F452F" opacity="1.000000" stroke="none" 
	d="
M94.961990,61.327190 
	C94.264107,61.158756 93.566231,60.990322 92.493912,60.422249 
	C88.715240,59.920048 85.311012,59.817486 81.906776,59.714920 
	C80.315506,59.745197 78.724243,59.775475 76.612244,59.561127 
	C75.725388,59.200954 75.359253,59.085403 74.993118,58.969852 
	C72.660706,57.907990 70.328285,56.846123 68.024017,55.411484 
	C68.052170,55.038704 68.034836,55.000874 68.310448,54.982376 
	C68.821365,54.682880 69.056664,54.401886 69.291962,54.120888 
	C69.599892,54.099083 69.836525,53.957836 70.412109,53.423477 
	C71.525368,53.063732 72.228378,52.977665 73.054947,53.164185 
	C73.774818,53.945477 74.371140,54.454182 75.160049,55.301277 
	C78.161263,55.948616 80.981834,56.591248 83.775780,56.491108 
	C88.377655,56.326168 93.183884,55.160091 94.961990,61.327190 
z"/>
<path fill="#784529" opacity="1.000000" stroke="none" 
	d="
M99.168762,8.583239 
	C99.130722,8.905415 98.898438,8.901932 98.077133,8.643696 
	C93.628441,7.913111 89.768761,7.437276 84.976898,6.846519 
	C84.976898,9.528344 84.976898,11.773393 84.977272,14.341145 
	C84.974701,15.094330 84.971756,15.524814 84.703064,15.957360 
	C84.082222,15.957143 83.727127,15.954863 83.228821,15.607621 
	C82.081795,12.832948 81.077988,10.403234 80.074173,7.973520 
	C79.898819,7.423826 79.723457,6.874131 79.283943,5.857006 
	C78.732422,5.141737 78.445045,4.893898 78.157677,4.646058 
	C79.094337,4.122661 80.189835,2.980487 80.942535,3.173712 
	C86.989723,4.726086 92.972237,6.530343 99.168762,8.583239 
z"/>
<path fill="#B26124" opacity="1.000000" stroke="none" 
	d="
M130.753845,119.888840 
	C131.793167,121.688744 132.525223,123.400063 132.825073,125.514824 
	C130.601074,125.946678 128.809250,125.975098 127.002777,125.629654 
	C123.648926,122.160347 120.309715,119.064903 116.981964,115.725754 
	C116.993416,115.482033 117.000832,114.994110 117.019058,114.731194 
	C117.057693,114.293770 117.078110,114.119255 117.514038,113.954681 
	C119.037514,113.898369 120.145477,113.832138 121.253441,113.765900 
	C121.253441,113.765900 121.164055,113.869843 121.213455,114.080948 
	C121.556610,114.504845 121.850365,114.717651 122.144119,114.930458 
	C122.144119,114.930458 122.059311,114.944809 122.151230,115.168549 
	C122.569702,115.538086 122.896240,115.683884 123.222778,115.829681 
	C123.222778,115.829681 123.088211,115.843208 123.200058,116.083252 
	C123.874382,116.547012 124.436844,116.770729 124.999306,116.994446 
	C124.999306,116.994446 125.000305,116.999695 125.179062,117.257851 
	C125.950676,117.664162 126.543549,117.812317 127.136414,117.960480 
	C128.239807,118.573738 129.343201,119.186996 130.753845,119.888840 
z"/>
<path fill="#AF703F" opacity="1.000000" stroke="none" 
	d="
M116.215324,44.225090 
	C116.384026,39.740803 116.755157,35.535503 117.212128,30.843672 
	C118.225746,34.192360 120.018982,38.065914 119.851273,41.852615 
	C119.662827,46.107479 117.703865,50.283920 116.250725,54.730312 
	C116.130127,51.478790 116.273941,47.991436 116.215324,44.225090 
z"/>
<path fill="#9A6A3E" opacity="1.000000" stroke="none" 
	d="
M12.610797,78.790909 
	C12.937714,79.650261 12.958066,80.432243 12.638996,81.656517 
	C11.237346,83.318756 9.883568,84.389183 9.167074,85.786415 
	C6.939353,90.130692 4.953350,94.598923 2.873580,99.019066 
	C3.613003,94.649773 4.352427,90.280479 5.117256,85.493721 
	C7.529850,82.955353 9.917041,80.834450 12.610797,78.790909 
z"/>
<path fill="#9E633E" opacity="1.000000" stroke="none" 
	d="
M121.109512,113.463158 
	C120.145477,113.832138 119.037514,113.898369 117.350952,113.652832 
	C114.512352,110.549057 112.252342,107.757042 109.992340,104.965034 
	C110.496971,103.598831 111.001602,102.232628 111.664886,100.591354 
	C114.870888,104.597664 117.918228,108.879044 121.109512,113.463158 
z"/>
<path fill="#F6EDE4" opacity="1.000000" stroke="none" 
	d="
M74.184021,48.356247 
	C73.266174,42.060871 76.570328,37.476624 80.737457,33.440540 
	C80.774719,35.531033 80.444481,37.274158 80.067734,39.325405 
	C79.991753,40.048153 79.962288,40.462780 79.620316,41.013233 
	C77.599884,43.551453 75.891953,45.953850 74.184021,48.356247 
z"/>
<path fill="#F6EDE4" opacity="1.000000" stroke="none" 
	d="
M79.784622,8.203065 
	C81.077988,10.403234 82.081795,12.832948 83.177185,15.933913 
	C83.357903,16.806423 83.447029,17.007679 83.438477,17.463398 
	C83.415627,18.065351 83.490456,18.412840 83.415573,19.172516 
	C83.270493,21.042061 83.275124,22.499416 83.158279,24.352825 
	C83.098442,25.841631 83.160080,26.934381 83.103035,28.327286 
	C82.892891,29.046331 82.801430,29.465225 82.495140,30.047710 
	C82.013481,30.680807 81.746651,31.150318 81.479813,31.619827 
	C80.818230,23.890755 80.156654,16.161682 79.784622,8.203065 
z"/>
<path fill="#8C5334" opacity="1.000000" stroke="none" 
	d="
M105.340576,74.210800 
	C106.949295,71.275391 108.620247,68.674515 110.646385,66.036758 
	C110.280113,69.346687 109.558655,72.693504 108.847748,76.421875 
	C105.531593,79.378906 106.262131,75.745674 105.340576,74.210800 
z"/>
<path fill="#96552A" opacity="1.000000" stroke="none" 
	d="
M74.079575,48.635765 
	C75.891953,45.953850 77.599884,43.551453 79.641129,41.424004 
	C79.317062,44.128555 78.659691,46.558167 77.805099,49.267159 
	C76.727737,51.351994 75.847595,53.157440 74.967453,54.962891 
	C74.371140,54.454182 73.774818,53.945477 73.076340,52.838127 
	C72.901711,51.814285 72.829247,51.389084 72.756775,50.963882 
	C73.162895,50.281017 73.569008,49.598152 74.079575,48.635765 
z"/>
<path fill="#A76936" opacity="1.000000" stroke="none" 
	d="
M81.492905,31.870100 
	C81.746651,31.150318 82.013481,30.680807 82.771576,30.163338 
	C83.514206,30.419266 83.765594,30.723156 84.008888,31.447666 
	C84.010132,33.273457 84.019463,34.678623 84.013283,36.401318 
	C83.992653,37.143486 83.987526,37.568127 83.989418,37.995792 
	C83.996429,37.998814 83.977379,37.983044 83.642303,38.014309 
	C82.242889,38.369476 81.178566,38.693382 80.114243,39.017284 
	C80.444481,37.274158 80.774719,35.531033 81.090691,33.401169 
	C81.219612,32.716415 81.362808,32.418392 81.492905,31.870100 
z"/>
<path fill="#F6EDE4" opacity="1.000000" stroke="none" 
	d="
M72.402519,50.975479 
	C72.829247,51.389084 72.901711,51.814285 72.952789,52.565544 
	C72.228378,52.977665 71.525368,53.063732 70.473038,53.219208 
	C70.765236,52.521431 71.406754,51.754257 72.402519,50.975479 
z"/>
<path fill="#F6EDE4" opacity="1.000000" stroke="none" 
	d="
M66.972313,54.664997 
	C66.823029,55.220863 66.625580,55.496964 66.195038,55.884087 
	C65.869339,55.172813 65.776718,54.350513 65.684090,53.528214 
	C66.097443,53.813885 66.510788,54.099556 66.972313,54.664997 
z"/>
<path fill="#9E633E" opacity="1.000000" stroke="none" 
	d="
M126.926338,117.736427 
	C126.543549,117.812317 125.950676,117.664162 125.181915,117.256912 
	C125.576096,117.169342 126.146179,117.340858 126.926338,117.736427 
z"/>
<path fill="#9E633E" opacity="1.000000" stroke="none" 
	d="
M124.877396,116.703888 
	C124.436844,116.770729 123.874382,116.547012 123.219208,116.018402 
	C123.669502,115.946777 124.212494,116.180054 124.877396,116.703888 
z"/>
<path fill="#F6EDE4" opacity="1.000000" stroke="none" 
	d="
M78.195053,4.933449 
	C78.445045,4.893898 78.732422,5.141737 79.046204,5.682170 
	C78.792557,5.723455 78.512489,5.472147 78.195053,4.933449 
z"/>
<path fill="#9E633E" opacity="1.000000" stroke="none" 
	d="
M123.070564,115.625832 
	C122.896240,115.683884 122.569702,115.538086 122.156586,115.125870 
	C122.352798,115.046959 122.635574,115.234474 123.070564,115.625832 
z"/>
<path fill="#9E633E" opacity="1.000000" stroke="none" 
	d="
M122.142883,114.634422 
	C121.850365,114.717651 121.556610,114.504845 121.219711,114.012680 
	C121.498268,113.935013 121.819962,114.136696 122.142883,114.634422 
z"/>
<path fill="#F6EDE4" opacity="1.000000" stroke="none" 
	d="
M69.013809,54.164017 
	C69.056664,54.401886 68.821365,54.682880 68.301620,55.000412 
	C68.256668,54.760342 68.496162,54.483742 69.013809,54.164017 
z"/>
<path fill="#BC661D" opacity="1.000000" stroke="none" 
	d="
M32.982281,105.165878 
	C31.252718,106.116501 29.523155,107.067116 27.149920,108.027847 
	C26.008240,108.320572 25.510233,108.603188 25.012226,108.885803 
	C25.012228,108.885811 24.740784,109.140701 24.132521,109.095627 
	C22.680046,109.032333 21.835836,109.014107 20.994183,108.563171 
	C20.998394,106.397713 21.000048,104.664948 21.333595,102.948227 
	C22.108244,102.974464 22.550995,102.984650 23.241554,103.001175 
	C23.489365,103.007523 23.985056,103.016945 24.183655,103.255692 
	C29.207705,101.617020 29.471865,97.605667 25.007130,93.614197 
	C25.009853,92.487869 25.013617,91.736992 25.387535,90.984138 
	C26.842663,89.323677 27.927635,87.665184 29.342350,86.005844 
	C30.111620,86.005363 30.551147,86.005737 31.143589,86.299873 
	C33.802601,87.400871 33.802601,87.400871 33.768356,83.435921 
	C35.835896,82.951317 37.903927,82.468338 40.139320,82.219780 
	C40.869972,83.637077 41.433270,84.819954 41.799873,86.247841 
	C40.382767,86.016106 39.162350,85.539368 37.988033,85.080635 
	C34.300797,90.997902 36.257000,96.524521 41.985790,97.266129 
	C41.991898,97.513123 42.004055,98.007492 41.995224,98.339600 
	C41.979267,99.114639 41.972137,99.557556 41.716244,100.171883 
	C40.977818,101.227058 40.488163,102.110825 39.782738,103.099213 
	C39.294617,103.396652 39.114658,103.654068 38.673195,103.992729 
	C37.199718,104.331100 36.080147,104.652832 34.934460,104.681740 
	C34.598694,104.068962 34.289051,103.749008 33.979401,103.429062 
	C33.671535,103.928864 33.363674,104.428665 33.024323,104.983765 
	C32.992832,105.039055 32.982281,105.165878 32.982281,105.165878 
z"/>
<path fill="#9A572E" opacity="1.000000" stroke="none" 
	d="
M80.002396,121.021263 
	C80.318626,122.106453 80.634857,123.191643 80.744675,124.762863 
	C80.332664,125.561012 80.127075,125.873131 79.921486,126.185249 
	C77.110283,123.329048 74.498520,120.233009 71.432442,117.683304 
	C68.292511,115.072189 64.707664,112.996094 61.151043,110.351974 
	C60.984531,110.018135 61.026470,109.980362 61.442589,109.871117 
	C63.571823,109.813332 65.284943,109.864784 67.400635,110.016014 
	C71.536926,110.790634 75.270638,111.465477 78.942680,112.439590 
	C77.267639,113.079765 75.654282,113.420662 73.491135,113.877724 
	C75.443878,115.667343 76.722878,116.839508 78.005280,118.362907 
	C78.665504,119.474426 79.322350,120.234718 79.987213,120.998383 
	C79.995247,121.001770 80.002396,121.021263 80.002396,121.021263 
z"/>
<path fill="#9A572E" opacity="1.000000" stroke="none" 
	d="
M49.823624,91.990341 
	C52.684544,96.180054 55.545467,100.369766 58.819527,105.108337 
	C59.830601,107.098259 60.428535,108.539307 61.026470,109.980362 
	C61.026470,109.980362 60.984531,110.018135 60.964325,110.037857 
	C56.861233,108.785294 52.778347,107.513008 48.235641,105.893799 
	C47.573677,105.276115 47.312267,105.087486 47.007450,104.632736 
	C47.688293,103.528107 48.353283,102.771706 49.384605,101.942650 
	C50.011826,100.278313 50.584114,98.659866 50.450256,97.102097 
	C50.302094,95.377853 49.507912,93.709137 49.202179,92.009071 
	C49.409298,92.001907 49.823624,91.990341 49.823624,91.990341 
z"/>
<path fill="#9E592D" opacity="1.000000" stroke="none" 
	d="
M20.991625,108.995880 
	C21.835836,109.014107 22.680046,109.032333 23.947178,109.078003 
	C18.956909,112.699806 13.543720,116.294167 7.785953,119.499924 
	C7.441376,119.111320 7.059616,118.850143 7.091996,118.529839 
	C8.420081,116.473129 9.715787,114.736717 11.367585,112.998810 
	C13.155277,112.333031 14.586877,111.668747 16.317352,110.985901 
	C17.091288,110.650833 17.566345,110.334335 18.356136,109.989410 
	C19.444452,109.639290 20.218039,109.317589 20.991625,108.995880 
z"/>
<path fill="#835236" opacity="1.000000" stroke="none" 
	d="
M7.059615,118.850143 
	C7.059616,118.850143 7.441376,119.111320 7.526713,119.173286 
	C6.375543,119.073761 4.326437,119.286308 4.048919,118.683403 
	C3.061722,116.538719 2.677794,114.116356 1.983217,111.411217 
	C1.905861,110.285477 1.910715,109.547653 1.845264,108.445404 
	C1.871184,106.659233 1.967408,105.237488 2.006311,103.391006 
	C1.948990,102.966263 2.128655,102.556046 2.424129,102.613449 
	C2.824532,103.479301 2.929461,104.287758 3.017713,105.489227 
	C3.325872,107.594955 3.650709,109.307655 4.029594,111.409760 
	C5.075634,114.149483 6.067625,116.499809 7.059615,118.850143 
z"/>
<path fill="#996541" opacity="1.000000" stroke="none" 
	d="
M46.991596,104.980972 
	C47.312267,105.087486 47.573677,105.276115 47.885429,105.765709 
	C43.123981,105.970451 38.252934,105.956360 33.182083,105.554070 
	C32.982281,105.165878 32.992832,105.039055 33.340824,105.016327 
	C34.112736,104.987259 34.536659,104.980919 34.960579,104.974571 
	C36.080147,104.652832 37.199718,104.331100 39.064205,104.052498 
	C42.203281,104.390739 44.597439,104.685852 46.991596,104.980972 
z"/>
<path fill="#9D5425" opacity="1.000000" stroke="none" 
	d="
M80.019150,126.453171 
	C80.127075,125.873131 80.332664,125.561012 80.782059,125.103172 
	C81.490791,125.861687 81.955727,126.765923 82.157318,127.868706 
	C81.301582,127.618530 80.709190,127.169807 80.019150,126.453171 
z"/>
<path fill="#9E592D" opacity="1.000000" stroke="none" 
	d="
M25.309803,108.909889 
	C25.510233,108.603188 26.008240,108.320572 26.807106,108.027969 
	C26.607773,108.323326 26.107578,108.628647 25.309803,108.909889 
z"/>
<path fill="#AC571B" opacity="1.000000" stroke="none" 
	d="
M115.016418,135.999390 
	C113.612854,136.754684 112.053925,137.322098 110.849358,138.318069 
	C109.641350,139.316910 108.786812,140.743240 107.403374,141.991837 
	C107.019638,141.251923 107.009888,140.502396 107.238525,139.374329 
	C107.476906,138.995789 107.959099,138.998123 108.134872,138.916840 
	C108.381073,138.729202 108.533813,138.560287 108.508354,138.526810 
	C108.361664,138.333786 108.172813,138.172806 107.944748,137.655624 
	C107.261505,135.873291 106.631783,134.436279 106.347443,132.964417 
	C108.573967,131.062180 113.164314,131.626297 112.331985,127.008720 
	C113.027878,126.306931 113.673355,125.619530 113.677353,124.928421 
	C113.682953,123.957558 113.212051,122.983948 113.222656,122.026070 
	C113.685173,122.055298 113.869987,122.069977 114.086388,122.401840 
	C114.773239,123.142090 115.428497,123.565155 116.520584,123.986603 
	C119.665222,124.696877 124.446281,121.768013 123.639877,127.998993 
	C121.729240,127.365021 120.188744,126.733177 118.648239,126.101334 
	C118.368958,126.424316 118.089668,126.747299 117.810387,127.070274 
	C119.889305,128.736984 121.968231,130.403687 124.001434,132.395782 
	C122.975517,133.812515 121.995300,134.903854 120.585785,135.997406 
	C118.443130,135.999542 116.729774,135.999466 115.016418,135.999390 
z"/>
<path fill="#9B5017" opacity="1.000000" stroke="none" 
	d="
M85.988060,125.024384 
	C86.261108,124.832741 86.534164,124.641106 87.130890,124.113068 
	C87.719955,123.577827 87.901131,123.319832 88.330261,123.031342 
	C90.108589,123.371048 91.554764,123.682091 93.341606,124.132156 
	C95.115273,124.507927 96.548256,124.744682 98.229774,125.168259 
	C99.323364,127.568008 100.168427,129.780930 100.787079,132.107758 
	C100.366219,132.493576 100.171768,132.765503 99.977318,133.037415 
	C94.482361,133.392700 89.983894,131.529266 86.321365,126.670273 
	C85.985924,125.864960 85.986992,125.444672 85.988060,125.024384 
z"/>
<path fill="#9D5425" opacity="1.000000" stroke="none" 
	d="
M87.998093,123.002686 
	C87.901131,123.319832 87.719955,123.577827 87.240974,123.884079 
	C84.921684,123.019470 82.815987,122.047447 80.356346,121.048347 
	C80.002396,121.021263 79.995247,121.001770 80.002533,120.737732 
	C80.019127,120.299835 80.028435,120.125977 80.323219,119.740173 
	C83.077354,118.701416 85.546021,117.874619 88.007523,117.390144 
	C87.999611,119.489204 87.998856,121.245949 87.998093,123.002686 
z"/>
<path fill="#9D5217" opacity="1.000000" stroke="none" 
	d="
M99.994003,133.426926 
	C100.171768,132.765503 100.366219,132.493576 101.172737,132.108582 
	C103.190559,132.330078 104.596306,132.664688 106.002060,132.999283 
	C106.631783,134.436279 107.261505,135.873291 107.936813,137.904999 
	C107.982399,138.499695 107.959099,138.998123 107.959099,138.998123 
	C107.959099,138.998123 107.476906,138.995789 107.235764,138.999542 
	C106.497154,139.378448 105.999687,139.753601 106.398705,139.452698 
	C104.535149,138.082474 103.020424,137.065689 101.627991,135.902496 
	C100.968338,135.351440 100.542473,134.520554 99.994003,133.426926 
z"/>
<path fill="#9D5425" opacity="1.000000" stroke="none" 
	d="
M85.759148,125.154633 
	C85.986992,125.444672 85.985924,125.864960 85.981216,126.598892 
	C85.828468,126.369980 85.679352,125.827431 85.759148,125.154633 
z"/>
<path fill="#663821" opacity="1.000000" stroke="none" 
	d="
M128.592163,143.489838 
	C127.642204,143.676346 126.730789,143.867447 125.473007,144.109772 
	C124.674805,144.100311 124.222954,144.039597 123.593681,143.709595 
	C123.952438,143.260269 124.488632,143.080200 125.241554,142.817093 
	C125.727356,142.552170 125.906326,142.305023 125.997452,141.996292 
	C125.999695,142.000000 125.992203,141.992844 126.232971,141.982147 
	C126.473740,141.971451 126.952835,141.918503 127.264664,141.912262 
	C128.077225,141.588577 128.577942,141.271133 129.278870,140.858902 
	C129.727051,140.583481 129.897934,140.347092 130.235931,140.037506 
	C130.480164,140.020096 130.969452,140.000046 131.321060,139.970688 
	C132.770401,138.948349 133.868118,137.955368 134.974960,136.629944 
	C135.010437,135.854935 135.036819,135.412354 135.389450,134.952545 
	C137.479385,133.624390 139.243057,132.313446 141.366806,131.019226 
	C141.965759,131.062607 142.204605,131.089249 142.443451,131.115891 
	C141.417953,132.877304 140.392456,134.638702 139.215729,136.709244 
	C136.221725,138.911774 133.378952,140.805161 130.030792,142.917923 
	C129.183182,143.124008 128.908508,143.253738 128.701385,143.526474 
	C128.701385,143.526474 128.630692,143.494446 128.592163,143.489838 
z"/>
<path fill="#EBE1D8" opacity="1.000000" stroke="none" 
	d="
M143.525696,137.548950 
	C143.473099,137.579575 143.578293,137.518341 143.525696,137.548950 
z"/>
<path fill="#F1E1D2" opacity="1.000000" stroke="none" 
	d="
M128.942902,143.613831 
	C128.908508,143.253738 129.183182,143.124008 129.761139,143.139023 
	C129.726059,143.327560 129.455231,143.514359 128.942902,143.613831 
z"/>
<path fill="#EBE1D8" opacity="1.000000" stroke="none" 
	d="
M145.004715,135.996368 
	C145.131348,136.139450 145.253326,136.286179 145.375305,136.432907 
	C145.287125,136.384079 145.198959,136.335251 145.051926,136.147766 
	C144.993073,136.009094 145.000076,136.000000 145.004715,135.996368 
z"/>
<path fill="#974915" opacity="1.000000" stroke="none" 
	d="
M135.063202,134.969788 
	C135.036819,135.412354 135.010437,135.854935 134.650208,136.649139 
	C131.603577,136.218277 131.557632,138.411697 130.969452,140.000046 
	C130.969452,140.000046 130.480164,140.020096 130.024323,140.118561 
	C129.298813,140.391815 129.135544,140.637375 129.078674,140.953705 
	C128.577942,141.271133 128.077225,141.588577 127.175636,141.757919 
	C126.513916,141.737488 126.253059,141.865158 125.992203,141.992844 
	C125.992203,141.992844 125.999695,142.000000 125.786812,142.090240 
	C125.307678,142.356888 125.124641,142.596786 125.024818,142.900146 
	C124.488632,143.080200 123.952438,143.260269 123.252594,143.672440 
	C122.906197,143.926636 122.723457,143.948730 122.144516,143.671997 
	C122.401443,140.970139 123.054573,138.567078 123.753593,135.995193 
	C122.942108,135.995193 121.978592,135.995193 121.015083,135.995193 
	C121.995300,134.903854 122.975517,133.812515 124.365829,132.376038 
	C129.377396,132.049713 129.131577,129.947678 126.981888,126.757416 
	C126.999504,126.338493 127.008461,126.171013 127.017426,126.003525 
	C128.809250,125.975098 130.601074,125.946678 132.841858,125.881363 
	C133.993225,125.622681 134.695648,125.400887 135.732178,125.485786 
	C135.717438,127.225792 135.368576,128.659103 135.021713,130.497375 
	C135.036865,132.258163 135.050034,133.613968 135.063202,134.969788 
z"/>
<path fill="#A45625" opacity="1.000000" stroke="none" 
	d="
M135.019714,130.092422 
	C135.368576,128.659103 135.717438,127.225792 136.023895,125.470474 
	C137.656876,124.957718 139.374557,124.449074 140.995865,124.664803 
	C142.646484,124.884438 144.202194,125.817139 145.799469,126.437607 
	C144.876984,127.888847 143.954514,129.340088 142.737732,130.953613 
	C142.204605,131.089249 141.965759,131.062607 140.978287,131.022064 
	C138.493027,130.702927 136.756363,130.397675 135.019714,130.092422 
z"/>
<path fill="#B96923" opacity="1.000000" stroke="none" 
	d="
M3.034389,105.096207 
	C2.929461,104.287758 2.824532,103.479301 2.542925,102.423645 
	C2.416943,101.308693 2.467638,100.440956 2.695957,99.296143 
	C4.953350,94.598923 6.939353,90.130692 9.167074,85.786415 
	C9.883568,84.389183 11.237346,83.318756 12.638288,82.048203 
	C13.147374,82.003090 13.317746,82.008598 13.744265,82.265411 
	C14.000412,82.516716 13.995638,83.007980 13.737129,83.220345 
	C13.597731,84.792175 11.155404,87.242439 15.003632,87.257965 
	C15.003606,87.502083 15.000389,87.990311 14.999583,88.240387 
	C14.997514,88.657166 14.996251,88.823868 14.634662,89.001495 
	C13.569072,89.461441 12.863808,89.910469 12.158544,90.359505 
	C12.764435,90.910843 13.370326,91.462189 14.121647,92.331070 
	C14.511525,95.781303 14.755972,98.914001 14.677484,102.078941 
	C13.061443,102.135292 11.460917,102.657768 10.534993,102.086617 
	C8.114080,100.593277 6.418934,100.442749 5.010007,103.263191 
	C4.634230,104.015450 3.707935,104.492699 3.034389,105.096207 
z"/>
<path fill="#A55A1C" opacity="1.000000" stroke="none" 
	d="
M120.585785,135.997406 
	C121.978592,135.995193 122.942108,135.995193 123.753593,135.995193 
	C123.054573,138.567078 122.401443,140.970139 121.868423,143.670929 
	C121.988525,143.968658 121.595131,144.061249 121.396332,144.086639 
	C118.761452,144.074371 116.325363,144.036728 113.438416,143.994232 
	C113.832527,142.140121 114.677498,140.290848 115.261337,137.970490 
	C114.999931,137.331711 114.999657,137.164017 114.999390,136.996338 
	C114.999390,136.996338 115.005653,136.497833 115.011032,136.248611 
	C116.729774,135.999466 118.443130,135.999542 120.585785,135.997406 
z"/>
<path fill="#AC571B" opacity="1.000000" stroke="none" 
	d="
M114.695923,137.001038 
	C114.999657,137.164017 114.999931,137.331711 115.000565,137.750946 
	C114.283798,137.951004 113.566673,137.899490 112.849556,137.847977 
	C112.841087,137.671738 112.832619,137.495499 112.824142,137.319260 
	C113.346916,137.214752 113.869682,137.110245 114.695923,137.001038 
z"/>
<path fill="#AC571B" opacity="1.000000" stroke="none" 
	d="
M110.904213,143.788116 
	C110.990883,143.947235 110.504784,143.959717 110.262352,143.946136 
	C110.285797,143.831375 110.551666,143.730179 110.904213,143.788116 
z"/>
<path fill="#CE7F1A" opacity="1.000000" stroke="none" 
	d="
M74.997871,65.978645 
	C75.449791,65.986954 75.901703,65.995262 76.658554,66.025673 
	C76.963478,66.047768 76.951302,66.200218 77.186020,66.436493 
	C78.922249,67.080818 80.423752,67.488884 82.193939,67.932411 
	C82.643044,67.977310 82.823463,67.986740 82.800217,68.283218 
	C82.547028,70.103355 82.045998,71.809364 82.551682,73.129852 
	C83.351280,75.217865 84.825645,77.047470 85.645920,78.952011 
	C82.223587,78.466263 79.169815,78.014946 76.116035,77.563622 
	C76.124687,77.827049 76.133339,78.090485 76.141991,78.353920 
	C74.430672,77.230934 72.719360,76.107956 70.961166,74.676376 
	C70.032600,74.763458 69.154068,75.166412 68.268379,75.552956 
	C67.177666,76.028969 66.080978,76.491310 64.999283,76.557419 
	C65.346573,74.213081 65.553070,72.237358 66.049408,70.337349 
	C66.647278,68.048691 66.701180,64.871338 70.718796,67.413864 
	C71.521088,67.921593 73.539963,66.506905 74.997871,65.978645 
z"/>
<path fill="#AA551D" opacity="1.000000" stroke="none" 
	d="
M41.996567,86.002831 
	C41.433270,84.819954 40.869972,83.637077 40.109890,81.911125 
	C40.761864,79.938957 35.114601,80.252037 39.011307,78.005516 
	C39.674248,75.653175 40.015644,73.135750 41.109741,71.004776 
	C41.877987,69.508461 43.671692,68.538643 45.007473,67.333717 
	C45.319210,67.676140 45.630947,68.018562 45.942684,68.360985 
	C44.578777,69.322365 43.214874,70.283745 41.850967,71.245125 
	C41.960361,71.681885 42.069756,72.118652 42.179150,72.555412 
	C44.155445,72.708984 46.131737,72.862564 48.724022,73.064011 
	C48.830105,70.710548 48.916706,68.789291 49.383423,66.435623 
	C50.876160,67.114265 51.988777,68.225334 53.101395,69.336403 
	C52.133263,71.344154 51.165127,73.351906 49.711433,75.741638 
	C48.136585,78.743713 47.047291,81.363815 45.661064,84.122757 
	C44.241608,84.842003 43.119087,85.422417 41.996567,86.002831 
z"/>
<path fill="#C57925" opacity="1.000000" stroke="none" 
	d="
M74.891731,65.698456 
	C73.539963,66.506905 71.521088,67.921593 70.718796,67.413864 
	C66.701180,64.871338 66.647278,68.048691 66.049408,70.337349 
	C65.553070,72.237358 65.346573,74.213081 64.748367,76.569946 
	C64.317566,76.989174 64.150070,76.993736 63.718716,76.997650 
	C63.278969,76.994728 63.103077,76.992455 62.927181,76.990173 
	C63.322681,72.236435 63.718182,67.482697 64.170425,62.046917 
	C65.333908,62.046917 66.682899,62.046917 68.637276,62.411400 
	C70.494530,63.133495 71.746399,63.491104 72.998268,63.848709 
	C73.594048,64.371895 74.189819,64.895073 74.891731,65.698456 
z"/>
<path fill="#9D6940" opacity="1.000000" stroke="none" 
	d="
M60.987122,93.046387 
	C58.787296,91.642967 56.613937,90.195824 54.382202,88.845131 
	C49.559650,85.926445 49.581188,83.673775 54.517235,80.807816 
	C55.087120,80.476936 55.695198,80.211823 56.625607,80.270668 
	C56.628216,81.409904 56.290783,82.194687 55.638794,83.030975 
	C53.498341,86.946259 56.993263,87.515152 59.203117,89.268417 
	C60.270302,89.701279 61.128639,89.874878 62.117561,90.335144 
	C62.485294,91.413094 62.722439,92.204369 62.630363,92.969688 
	C61.863136,92.977951 61.425129,93.012169 60.987122,93.046387 
z"/>
<path fill="#B15F1A" opacity="1.000000" stroke="none" 
	d="
M61.986973,90.048477 
	C61.128639,89.874878 60.270302,89.701279 59.202248,88.900986 
	C57.979465,86.509346 56.966404,84.744408 55.953346,82.979462 
	C56.290783,82.194687 56.628216,81.409904 57.001598,80.305237 
	C58.108498,79.657684 59.179443,79.330009 60.650261,79.335083 
	C61.719139,83.101959 62.388149,86.536095 62.789268,89.989555 
	C62.343246,90.022079 62.165112,90.035278 61.986973,90.048477 
z"/>
<path fill="#C8791B" opacity="1.000000" stroke="none" 
	d="
M63.057163,89.970230 
	C62.388149,86.536095 61.719139,83.101959 60.992256,79.284920 
	C61.487740,78.418312 62.041100,77.934608 62.760818,77.220535 
	C63.103077,76.992455 63.278969,76.994728 63.723518,77.411057 
	C64.914948,80.473015 65.960373,83.086884 66.708313,85.783287 
	C67.077675,87.114868 66.898102,88.598709 66.575623,90.010468 
	C65.141953,89.994934 64.099556,89.982582 63.057163,89.970230 
z"/>
<path fill="#884827" opacity="1.000000" stroke="none" 
	d="
M45.958000,83.983925 
	C47.047291,81.363815 48.136585,78.743713 49.565132,76.050659 
	C49.575642,81.061188 46.256283,86.135033 49.839420,91.610764 
	C49.823624,91.990341 49.409298,92.001907 48.796345,91.991074 
	C43.777534,90.334511 46.976051,86.572479 45.958000,83.983925 
z"/>
<path fill="#F1E1D3" opacity="1.000000" stroke="none" 
	d="
M61.048813,93.452797 
	C61.425129,93.012169 61.863136,92.977951 62.643585,92.978989 
	C62.986023,93.014244 63.013832,93.023621 63.082314,93.382568 
	C63.250927,94.463898 63.351067,95.186279 63.321968,96.353806 
	C63.151058,98.905960 63.178318,101.017105 63.052227,103.119041 
	C62.841591,106.630386 64.266190,108.346764 67.848557,108.094925 
	C67.521973,108.889175 67.260017,109.402710 66.998062,109.916245 
	C65.284943,109.864784 63.571823,109.813332 61.442589,109.871117 
	C60.428535,108.539307 59.830601,107.098259 59.068279,105.338104 
	C59.932796,104.082802 61.778339,103.192863 61.834492,102.201569 
	C61.990734,99.443298 61.403870,96.642944 61.048813,93.452797 
z"/>
<path fill="#EDE7E1" opacity="1.000000" stroke="none" 
	d="
M81.926285,60.101547 
	C85.311012,59.817486 88.715240,59.920048 92.133461,60.456100 
	C92.147446,60.889591 92.086533,60.916111 91.646935,60.997704 
	C86.455322,62.786270 81.703316,64.493248 76.951302,66.200218 
	C76.951302,66.200218 76.963478,66.047768 76.994514,65.977928 
	C78.665634,64.101448 80.305717,62.294811 81.926285,60.101547 
z"/>
<path fill="#94552F" opacity="1.000000" stroke="none" 
	d="
M53.394398,69.161636 
	C51.988777,68.225334 50.876160,67.114265 49.383911,65.991547 
	C49.000793,65.605309 48.997303,65.230713 48.985909,64.575508 
	C51.682907,63.907436 54.387817,63.519974 57.446159,63.245598 
	C56.428860,65.234741 55.058132,67.110802 53.394398,69.161636 
z"/>
<path fill="#EDE7E1" opacity="1.000000" stroke="none" 
	d="
M72.987511,63.483978 
	C71.746399,63.491104 70.494530,63.133495 69.082474,62.469654 
	C70.720726,60.586147 72.276932,60.036362 72.987511,63.483978 
z"/>
<path fill="#EDE7E1" opacity="1.000000" stroke="none" 
	d="
M75.148880,59.210152 
	C75.359253,59.085403 75.725388,59.200954 76.215988,59.601849 
	C75.995178,59.741611 75.649910,59.596035 75.148880,59.210152 
z"/>
<path fill="#BF6F1C" opacity="1.000000" stroke="none" 
	d="
M86.014465,78.986427 
	C84.825645,77.047470 83.351280,75.217865 82.551682,73.129852 
	C82.045998,71.809364 82.547028,70.103355 83.170937,68.272865 
	C84.490646,66.976433 85.235954,65.977394 85.989716,64.988388 
	C85.998169,64.998413 85.985237,64.981361 86.325157,65.039841 
	C88.460709,66.728386 90.256332,68.358459 92.051964,69.988525 
	C92.101372,70.401047 92.150787,70.813560 92.052353,71.835670 
	C91.833290,72.642174 91.762077,72.839081 91.482239,73.351143 
	C91.337692,78.113861 89.755180,82.946426 94.135864,86.404587 
	C93.471382,88.248352 92.780342,90.165810 92.069656,92.445312 
	C92.000298,93.527435 91.950584,94.247513 91.667435,95.157516 
	C90.950653,96.230400 90.467308,97.113373 89.736504,97.998154 
	C89.489052,97.999954 88.993767,98.004845 88.992516,97.670563 
	C88.991837,96.890587 88.992409,96.444893 88.996384,95.621918 
	C88.329735,93.496399 87.659683,91.748146 87.058365,89.623077 
	C90.299515,84.454872 89.860962,80.410835 86.014465,78.986427 
z"/>
<path fill="#E7E2DF" opacity="1.000000" stroke="none" 
	d="
M107.984741,87.340942 
	C106.041145,91.541885 104.086166,95.421921 101.791885,99.840591 
	C99.362015,102.278557 97.271439,104.177879 94.838036,106.011658 
	C94.898636,100.854370 95.302078,95.762642 95.776199,90.809120 
	C95.846870,90.947334 95.664391,90.696152 96.090698,90.794662 
	C97.669327,90.918457 98.821632,90.943748 100.221588,91.066116 
	C100.959770,90.788963 101.450317,90.414726 101.968102,90.012192 
	C101.995331,89.983887 102.054649,89.932404 102.258865,89.841431 
	C102.717857,89.566277 102.875114,89.319832 102.953888,88.676575 
	C102.990051,87.895599 103.007210,87.449173 103.024368,87.002747 
	C104.012894,86.671722 104.988701,86.146004 105.994553,86.080315 
	C106.630981,86.038757 107.312225,86.683243 107.984741,87.340942 
z"/>
<path fill="#914D20" opacity="1.000000" stroke="none" 
	d="
M75.160049,55.301277 
	C75.847595,53.157440 76.727737,51.351994 78.120682,49.313976 
	C80.030663,52.970325 80.030663,52.970325 86.668327,51.398666 
	C88.792969,51.896030 90.917603,52.393394 93.362732,52.931854 
	C94.111351,53.024448 94.539482,53.075954 94.973663,53.484997 
	C96.307350,55.244659 97.634995,56.646782 98.962639,58.048904 
	C99.728165,59.979298 100.493690,61.909687 100.988007,64.031776 
	C98.905663,63.452076 97.094528,62.680683 95.122688,61.618240 
	C93.183884,55.160091 88.377655,56.326168 83.775780,56.491108 
	C80.981834,56.591248 78.161263,55.948616 75.160049,55.301277 
z"/>
<path fill="#A25A24" opacity="1.000000" stroke="none" 
	d="
M92.089302,92.083267 
	C92.780342,90.165810 93.471382,88.248352 94.135864,86.404587 
	C89.755180,82.946426 91.337692,78.113861 91.549530,73.584595 
	C91.972374,73.952888 92.119324,74.402893 92.266273,74.852905 
	C94.358284,76.584297 96.545250,78.215523 98.511543,80.079529 
	C100.021141,81.510574 101.252617,83.235016 101.998856,85.050575 
	C99.481415,87.080162 97.572899,88.888153 95.664383,90.696152 
	C95.664391,90.696152 95.846870,90.947334 95.459991,90.892166 
	C94.078506,91.252426 93.083900,91.667847 92.089302,92.083267 
z"/>
<path fill="#A47441" opacity="1.000000" stroke="none" 
	d="
M77.186020,66.436493 
	C81.703316,64.493248 86.455322,62.786270 91.619705,61.016739 
	C92.231514,61.895287 92.430954,62.836399 92.039780,63.788086 
	C89.627861,64.192894 87.806549,64.587128 85.985237,64.981361 
	C85.985237,64.981361 85.998169,64.998413 85.647346,65.027527 
	C84.172775,66.003410 83.049019,66.950180 81.925262,67.896950 
	C80.423752,67.488884 78.922249,67.080818 77.186020,66.436493 
z"/>
<path fill="#C57B36" opacity="1.000000" stroke="none" 
	d="
M86.325157,65.039841 
	C87.806549,64.587128 89.627861,64.192894 91.768761,63.945145 
	C92.090248,65.775612 92.092140,67.459595 92.072998,69.566055 
	C90.256332,68.358459 88.460709,66.728386 86.325157,65.039841 
z"/>
<path fill="#F7E5D3" opacity="1.000000" stroke="none" 
	d="
M96.090698,90.794655 
	C97.572899,88.888153 99.481415,87.080162 101.726273,85.268494 
	C102.319099,85.690651 102.575584,86.116478 102.928215,86.772530 
	C103.007210,87.449173 102.990051,87.895599 102.758133,88.777710 
	C102.293762,89.394112 102.130859,89.633781 102.054649,89.932404 
	C102.054649,89.932404 101.995331,89.983887 101.678070,90.018188 
	C100.898529,90.358002 100.436241,90.663521 99.973946,90.969040 
	C98.821632,90.943748 97.669327,90.918457 96.090698,90.794655 
z"/>
<path fill="#C57B36" opacity="1.000000" stroke="none" 
	d="
M92.418015,74.566147 
	C92.119324,74.402893 91.972374,73.952888 91.758141,73.269424 
	C91.762077,72.839081 91.833290,72.642174 91.997330,72.144531 
	C92.250015,72.655670 92.409889,73.467522 92.418015,74.566147 
z"/>
<path fill="#BA6A1A" opacity="1.000000" stroke="none" 
	d="
M102.992981,29.001141 
	C105.397583,28.496803 107.802177,27.992466 111.374298,27.243256 
	C111.514275,28.118151 112.488770,30.243433 112.003525,31.954830 
	C110.779892,36.270508 110.894135,40.259380 113.004379,44.592060 
	C112.576759,44.991463 112.137589,45.000740 111.356743,45.006203 
	C111.015060,45.002388 110.995155,45.003880 110.950127,44.610825 
	C110.372360,41.963020 109.839622,39.708271 109.171066,36.878696 
	C108.187294,38.579670 107.611397,39.575417 107.163284,40.350224 
	C106.030846,39.145084 105.132393,38.188950 104.233940,37.232811 
	C103.620354,38.132797 103.006767,39.032780 102.519936,39.746853 
	C101.673203,37.817856 100.834465,35.907085 100.023285,33.676971 
	C100.370621,32.569263 100.690399,31.780901 101.329193,30.951458 
	C102.096481,30.273970 102.544731,29.637556 102.992981,29.001141 
z"/>
<path fill="#C97620" opacity="1.000000" stroke="none" 
	d="
M111.027443,45.005783 
	C111.362373,46.689442 111.684921,48.369705 111.858963,49.276363 
	C109.665161,50.697281 107.468903,52.196072 105.192062,53.560398 
	C104.146683,54.186806 102.943161,54.549278 101.093567,55.021770 
	C99.917603,53.670540 99.459412,52.328979 99.000565,50.657188 
	C98.999641,49.886307 98.999359,49.445660 99.166809,48.914848 
	C99.222725,48.547691 99.110901,48.270695 98.999557,47.668564 
	C99.002350,46.909908 99.004677,46.476398 99.012329,45.784649 
	C99.025055,45.354736 99.032471,45.183056 99.425705,45.008400 
	C103.539398,45.004910 107.267273,45.004395 110.995155,45.003880 
	C110.995155,45.003880 111.015060,45.002388 111.027443,45.005783 
z"/>
<path fill="#BE671C" opacity="1.000000" stroke="none" 
	d="
M99.001221,50.987419 
	C99.459412,52.328979 99.917603,53.670540 100.711639,55.030983 
	C100.583633,56.006958 100.119789,56.964054 99.309296,57.985027 
	C97.634995,56.646782 96.307350,55.244659 94.981400,53.094582 
	C94.431595,50.415627 93.880081,48.484631 93.328568,46.553638 
	C93.656418,46.317982 93.984268,46.082325 94.312119,45.846668 
	C95.875153,47.560253 97.438187,49.273834 99.001221,50.987419 
z"/>
<path fill="#C97620" opacity="1.000000" stroke="none" 
	d="
M109.460831,53.672871 
	C110.412430,53.305363 111.265747,53.201118 112.119072,53.096870 
	C112.134392,53.376625 112.149712,53.656380 112.165024,53.936134 
	C111.230865,53.936134 110.296700,53.936134 109.460831,53.672871 
z"/>
<path fill="#C66F1E" opacity="1.000000" stroke="none" 
	d="
M38.811516,77.747871 
	C35.114601,80.252037 40.761864,79.938957 39.942535,81.676704 
	C37.903927,82.468338 35.835896,82.951317 33.768356,83.435921 
	C33.802601,87.400871 33.802601,87.400871 31.145313,85.908127 
	C29.994005,83.141632 28.993881,81.060654 27.993759,78.979668 
	C27.990704,77.917534 27.987646,76.855400 27.978325,75.394897 
	C29.225479,74.391701 30.478895,73.786880 31.732311,73.182060 
	C32.054703,74.293381 32.452026,75.389778 32.677299,76.520447 
	C32.881035,77.543022 32.896870,78.603027 32.900364,78.639969 
	C35.367008,78.143417 36.989365,77.816818 38.811516,77.747871 
z"/>
<path fill="#94552F" opacity="1.000000" stroke="none" 
	d="
M44.414604,64.964035 
	C44.831749,64.797974 45.505966,64.623985 46.432419,64.588806 
	C46.013664,64.803787 45.342674,64.879944 44.414604,64.964035 
z"/>
<path fill="#BC7128" opacity="1.000000" stroke="none" 
	d="
M102.622833,28.931515 
	C102.544731,29.637556 102.096481,30.273970 101.119759,30.704628 
	C99.057892,32.330280 97.524490,34.161686 95.675156,35.951408 
	C93.904015,35.606510 92.448807,35.303299 90.747482,34.998726 
	C90.501373,34.997364 90.009155,34.994965 90.008255,34.745304 
	C90.007362,34.495644 90.001305,33.996357 90.043564,33.686043 
	C90.759628,32.149048 91.433418,30.922361 92.119682,29.672987 
	C93.006325,30.033709 94.101143,30.479122 95.195953,30.924534 
	C95.595100,30.631735 95.994247,30.338938 96.393402,30.046139 
	C95.609070,28.691334 94.824738,27.336529 94.049301,25.689535 
	C94.369232,24.940567 94.680267,24.483788 95.231934,24.221684 
	C96.316017,23.160566 97.199158,21.929186 97.991249,20.641783 
	C98.714432,19.466379 99.339005,18.230307 100.007034,17.020973 
	C100.755585,20.967945 101.504135,24.914917 102.622833,28.931515 
z"/>
<path fill="#AC5919" opacity="1.000000" stroke="none" 
	d="
M100.255585,17.012539 
	C99.339005,18.230307 98.714432,19.466379 97.991249,20.641783 
	C97.199158,21.929186 96.316017,23.160566 95.230400,23.852764 
	C94.657402,20.864906 94.326561,18.440643 94.371078,16.009256 
	C96.848366,16.027220 98.950294,16.052307 101.026733,16.307476 
	C101.001244,16.537560 101.001495,17.000542 101.001495,17.000542 
	C101.001495,17.000542 100.504128,17.004107 100.255585,17.012539 
z"/>
<path fill="#BC7128" opacity="1.000000" stroke="none" 
	d="
M101.250160,17.000454 
	C101.001495,17.000542 101.001244,16.537560 101.232529,16.405859 
	C101.715256,16.466650 101.890823,16.713205 101.990532,17.013823 
	C101.990532,17.013823 101.999771,17.000353 101.997955,17.002108 
	C101.996140,17.003862 101.498825,17.000366 101.250160,17.000454 
z"/>
<path fill="#995021" opacity="1.000000" stroke="none" 
	d="
M95.180862,106.077209 
	C97.271439,104.177879 99.362015,102.278557 101.720566,100.191086 
	C102.454483,100.875549 103.473877,101.921059 103.266937,102.583450 
	C102.879730,103.822884 101.781540,104.840210 100.805870,106.189545 
	C103.403534,106.482857 105.369415,106.704834 107.664169,107.332016 
	C107.995461,108.492729 107.997887,109.248230 108.000603,110.002213 
	C108.000900,110.000687 108.005165,110.007675 107.623856,110.005615 
	C104.838783,111.001114 102.435013,111.998665 99.740250,112.888969 
	C97.640411,113.180962 95.831558,113.580200 93.986526,113.669342 
	C93.592163,112.883369 93.233971,112.407509 93.027870,111.602798 
	C93.846931,109.541695 94.513893,107.809448 95.180862,106.077209 
z"/>
<path fill="#974513" opacity="1.000000" stroke="none" 
	d="
M108.000305,110.003738 
	C107.997887,109.248230 107.995461,108.492729 107.987335,107.358963 
	C108.439735,106.344223 108.897842,105.707748 109.674149,105.018158 
	C112.252342,107.757042 114.512352,110.549057 116.935440,113.642906 
	C117.078110,114.119255 117.057693,114.293770 116.660599,114.698845 
	C113.522713,113.287521 110.761513,111.645630 108.000305,110.003738 
z"/>
<path fill="#C16B15" opacity="1.000000" stroke="none" 
	d="
M27.697638,79.015656 
	C28.993881,81.060654 29.994005,83.141632 30.992403,85.614365 
	C30.551147,86.005737 30.111620,86.005363 29.159414,85.763809 
	C27.091166,85.342636 25.535593,85.162636 23.877438,84.725998 
	C23.512722,83.985046 23.250591,83.500740 22.988461,83.016441 
	C20.856272,77.684258 26.211523,80.686035 27.697638,79.015656 
z"/>
<path fill="#B25B1B" opacity="1.000000" stroke="none" 
	d="
M22.660442,83.016327 
	C23.250591,83.500740 23.512722,83.985046 23.746859,85.040367 
	C24.151703,87.402962 24.584541,89.194534 25.017380,90.986107 
	C25.013617,91.736992 25.009853,92.487869 24.631111,93.616203 
	C23.504595,93.995468 22.753061,93.997276 21.974234,93.711502 
	C20.279163,91.601357 18.611385,89.778793 17.025845,87.615204 
	C18.410158,86.180313 19.712240,85.086441 21.016197,83.748619 
	C21.018070,83.504677 21.019945,83.016785 21.019945,83.016785 
	C21.457438,83.016594 21.894932,83.016411 22.660442,83.016327 
z"/>
<path fill="#C16B15" opacity="1.000000" stroke="none" 
	d="
M20.975315,82.702805 
	C21.019945,83.016785 21.018070,83.504677 20.586668,83.751350 
	C18.439606,84.001968 16.723944,84.005913 14.896830,83.790497 
	C14.584482,83.295982 14.321237,83.108261 13.995638,83.007980 
	C13.995638,83.007980 14.000412,82.516716 13.999885,82.271393 
	C16.309801,82.146988 18.620243,82.267914 20.975315,82.702805 
z"/>
<path fill="#995122" opacity="1.000000" stroke="none" 
	d="
M84.976898,14.018440 
	C84.976898,11.773393 84.976898,9.528344 84.976898,6.846519 
	C89.768761,7.437276 93.628441,7.913111 97.729126,8.661420 
	C97.988754,9.378834 98.007378,9.823771 97.979065,10.912746 
	C96.498169,10.966075 95.064201,10.375364 93.623596,9.781919 
	C93.577637,9.887980 93.330368,10.458637 92.755379,11.140755 
	C90.948837,11.834811 89.470032,12.417407 87.670578,13.025059 
	C86.558922,13.372890 85.767914,13.695664 84.976898,14.018440 
z"/>
<path fill="#994A12" opacity="1.000000" stroke="none" 
	d="
M93.083099,11.029293 
	C93.330368,10.458637 93.577637,9.887980 93.623596,9.781919 
	C95.064201,10.375364 96.498169,10.966075 97.982712,11.246187 
	C99.562027,12.932632 101.090759,14.929673 102.305008,16.970268 
	C101.890823,16.713205 101.715256,16.466650 101.258018,16.175776 
	C98.950294,16.052307 96.848366,16.027220 94.334106,15.643663 
	C93.642220,13.866561 93.362656,12.447927 93.083099,11.029293 
z"/>
<path fill="#984B19" opacity="1.000000" stroke="none" 
	d="
M84.977272,14.341143 
	C85.767914,13.695664 86.558922,13.372890 87.841827,13.360415 
	C89.889412,17.778568 91.445107,21.886421 92.673157,25.993576 
	C91.908676,25.986076 91.471863,25.979279 90.978363,25.655096 
	C89.278587,24.890589 87.635490,24.443466 85.994507,23.663813 
	C85.996063,22.887899 85.995506,22.444515 86.289207,21.969385 
	C87.045425,21.619169 87.507385,21.300701 88.139542,20.900036 
	C88.194244,20.551523 88.078751,20.285204 87.922241,19.700157 
	C87.250977,18.929789 86.620712,18.478146 85.971191,17.720238 
	C85.624214,16.927746 85.296509,16.441521 84.968811,15.955297 
	C84.971756,15.524814 84.974701,15.094330 84.977272,14.341143 
z"/>
<path fill="#995122" opacity="1.000000" stroke="none" 
	d="
M85.994949,22.001133 
	C85.995506,22.444515 85.996063,22.887899 85.655441,23.662052 
	C84.636101,23.980806 83.957932,23.968790 83.279755,23.956774 
	C83.275124,22.499416 83.270493,21.042061 83.507568,19.029619 
	C83.787331,18.328819 83.883545,18.168619 83.851601,18.040337 
	C83.780472,17.754730 83.645248,17.485086 83.536148,17.208937 
	C83.447029,17.007679 83.357903,16.806423 83.320404,16.278873 
	C83.727127,15.954863 84.082222,15.957143 84.703064,15.957361 
	C85.296509,16.441521 85.624214,16.927746 85.713066,17.928665 
	C85.647797,19.629284 85.821373,20.815208 85.994949,22.001133 
z"/>
<path fill="#C26B22" opacity="1.000000" stroke="none" 
	d="
M127.002777,125.629654 
	C127.008461,126.171013 126.999504,126.338493 126.691307,126.881714 
	C125.598045,127.505341 124.804031,127.753227 124.010010,128.001114 
	C124.446281,121.768013 119.665222,124.696877 116.454498,123.675415 
	C115.319328,122.938797 114.687065,122.511726 114.054802,122.084656 
	C113.869987,122.069977 113.685173,122.055298 113.099342,121.724182 
	C112.795525,120.289085 112.892738,119.170418 113.202637,118.301270 
	C114.600388,117.690346 115.785446,116.829910 116.970505,115.969467 
	C120.309715,119.064903 123.648926,122.160347 127.002777,125.629654 
z"/>
<path fill="#A95414" opacity="1.000000" stroke="none" 
	d="
M116.981964,115.725754 
	C115.785446,116.829910 114.600388,117.690346 113.169754,117.973473 
	C112.285553,116.931183 111.646927,116.466202 110.744781,115.985962 
	C110.305756,115.957962 110.130249,115.945213 109.969292,115.563889 
	C109.324287,113.466110 108.664726,111.736893 108.005165,110.007675 
	C108.005165,110.007675 108.000900,110.000687 108.000603,110.002213 
	C110.761513,111.645630 113.522713,113.287521 116.642372,114.961761 
	C117.000832,114.994110 116.993416,115.482033 116.981964,115.725754 
z"/>
<path fill="#A4521B" opacity="1.000000" stroke="none" 
	d="
M93.042244,52.890759 
	C90.917603,52.393394 88.792969,51.896030 86.668327,51.398666 
	C80.030663,52.970325 80.030663,52.970325 78.317894,49.034592 
	C78.659691,46.558167 79.317062,44.128555 79.953629,41.288177 
	C79.962288,40.462780 79.991753,40.048153 80.067726,39.325405 
	C81.178566,38.693382 82.242889,38.369476 83.834824,38.289055 
	C85.595276,39.019730 86.828133,39.506924 88.057922,40.432381 
	C86.982292,46.012161 89.151337,49.808681 93.042244,52.890759 
z"/>
<path fill="#AB5B19" opacity="1.000000" stroke="none" 
	d="
M91.035042,25.972481 
	C91.471863,25.979279 91.908676,25.986076 92.933075,25.993053 
	C93.693909,25.989395 93.867157,25.985559 94.040413,25.981724 
	C94.824738,27.336529 95.609070,28.691334 96.393402,30.046139 
	C95.994247,30.338938 95.595100,30.631735 95.195953,30.924534 
	C94.101143,30.479122 93.006325,30.033709 92.119682,29.672987 
	C91.433418,30.922361 90.759628,32.149048 89.740128,33.532696 
	C88.599396,32.541489 87.804375,31.393316 87.050163,30.304085 
	C85.915932,30.574430 84.966454,30.800739 84.016975,31.027046 
	C83.765594,30.723156 83.514206,30.419266 82.986389,29.999748 
	C82.801430,29.465225 82.892891,29.046331 83.496223,28.323931 
	C86.350410,27.337776 88.692726,26.655127 91.035042,25.972481 
z"/>
<path fill="#A76936" opacity="1.000000" stroke="none" 
	d="
M90.978363,25.655094 
	C88.692726,26.655127 86.350410,27.337776 83.614906,28.023779 
	C83.160080,26.934381 83.098442,25.841631 83.158287,24.352825 
	C83.957932,23.968790 84.636101,23.980806 85.653336,23.994583 
	C87.635490,24.443466 89.278587,24.890589 90.978363,25.655094 
z"/>
<path fill="#784529" opacity="1.000000" stroke="none" 
	d="
M83.438477,17.463398 
	C83.645248,17.485086 83.780472,17.754730 83.851601,18.040337 
	C83.883545,18.168619 83.787331,18.328819 83.657280,18.617432 
	C83.490456,18.412840 83.415627,18.065351 83.438477,17.463398 
z"/>
<path fill="#B8681C" opacity="1.000000" stroke="none" 
	d="
M84.008888,31.447666 
	C84.966454,30.800739 85.915932,30.574430 87.050163,30.304085 
	C87.804375,31.393316 88.599396,32.541489 89.697861,33.843010 
	C90.001305,33.996357 90.007362,34.495644 89.968513,35.092731 
	C89.306770,37.124588 88.683876,38.559353 88.060982,39.994118 
	C86.828133,39.506924 85.595276,39.019730 84.169907,38.257790 
	C83.977379,37.983044 83.996429,37.998814 84.214928,37.859913 
	C84.298546,37.175274 84.163673,36.629532 84.028793,36.083794 
	C84.019463,34.678623 84.010132,33.273457 84.008888,31.447666 
z"/>
<path fill="#A4521B" opacity="1.000000" stroke="none" 
	d="
M84.013290,36.401318 
	C84.163673,36.629532 84.298546,37.175274 84.207916,37.856892 
	C83.987526,37.568127 83.992653,37.143486 84.013290,36.401318 
z"/>
<path fill="#9E4D1A" opacity="1.000000" stroke="none" 
	d="
M45.661064,84.122757 
	C46.976051,86.572479 43.777534,90.334511 48.589226,91.998230 
	C49.507912,93.709137 50.302094,95.377853 50.450256,97.102097 
	C50.584114,98.659866 50.011826,100.278313 49.194160,101.673279 
	C47.791027,101.323914 46.944668,101.171272 45.747169,101.008224 
	C44.929981,100.995918 44.463932,100.994034 43.997536,100.753479 
	C43.997196,100.514816 43.998993,100.037498 43.982380,99.729660 
	C43.636627,98.940681 43.307487,98.459541 42.873749,97.761627 
	C42.568905,97.275185 42.305752,97.099945 41.979683,97.019135 
	C36.257000,96.524521 34.300797,90.997902 37.988033,85.080635 
	C39.162350,85.539368 40.382767,86.016106 41.799873,86.247841 
	C43.119087,85.422417 44.241608,84.842003 45.661064,84.122757 
z"/>
<path fill="#AC571D" opacity="1.000000" stroke="none" 
	d="
M16.943611,87.956238 
	C18.611385,89.778793 20.279163,91.601357 21.977968,94.081528 
	C21.658670,97.739273 26.979025,99.385719 23.985056,103.016945 
	C23.985056,103.016945 23.489365,103.007523 23.206154,102.696709 
	C22.382793,101.956505 21.842642,101.527107 21.302490,101.097717 
	C21.202225,101.709206 21.101961,102.320702 21.001698,102.932190 
	C21.000048,104.664948 20.998394,106.397713 20.994183,108.563179 
	C20.218039,109.317589 19.444452,109.639290 18.222584,109.713684 
	C17.180471,108.648399 16.586643,107.830429 15.993273,106.673264 
	C15.664540,105.555649 15.335350,104.777214 15.003046,103.999390 
	C14.999932,104.000000 15.001277,103.993393 15.001078,103.668617 
	C15.000726,102.911461 15.000572,102.479073 15.000420,102.046692 
	C14.755972,98.914001 14.511525,95.781303 14.388706,92.124771 
	C14.671886,90.730812 14.833437,89.860695 14.994987,88.990578 
	C14.996251,88.823868 14.997514,88.657166 15.323786,88.234772 
	C16.080400,87.971466 16.512007,87.963852 16.943611,87.956238 
z"/>
<path fill="#A75013" opacity="1.000000" stroke="none" 
	d="
M24.183655,103.255692 
	C26.979025,99.385719 21.658670,97.739273 22.005260,94.369110 
	C22.753061,93.997276 23.504595,93.995468 24.632149,93.991653 
	C29.471865,97.605667 29.207705,101.617020 24.183655,103.255692 
z"/>
<path fill="#C66F1E" opacity="1.000000" stroke="none" 
	d="
M25.387535,90.984138 
	C24.584541,89.194534 24.151703,87.402962 23.849442,85.297012 
	C25.535593,85.162636 27.091166,85.342636 28.829674,85.764656 
	C27.927635,87.665184 26.842663,89.323677 25.387535,90.984138 
z"/>
<path fill="#C06A29" opacity="1.000000" stroke="none" 
	d="
M46.098309,101.018631 
	C46.944668,101.171272 47.791027,101.323914 48.827831,101.745926 
	C48.353283,102.771706 47.688293,103.528107 47.007450,104.632736 
	C44.597439,104.685852 42.203281,104.390739 39.418106,104.035858 
	C39.114658,103.654068 39.294617,103.396652 40.188206,103.103630 
	C41.890289,102.982071 42.971142,102.960724 44.322258,102.839157 
	C45.094448,102.165504 45.596378,101.592064 46.098309,101.018631 
z"/>
<path fill="#AD571B" opacity="1.000000" stroke="none" 
	d="
M44.051994,102.939377 
	C42.971142,102.960724 41.890289,102.982071 40.403969,102.999008 
	C40.488163,102.110825 40.977818,101.227058 42.055748,100.174469 
	C43.095676,100.016266 43.547337,100.026878 43.998993,100.037498 
	C43.998993,100.037498 43.997196,100.514816 43.997723,101.078674 
	C44.016163,102.074806 44.034077,102.507088 44.051994,102.939377 
z"/>
<path fill="#A75013" opacity="1.000000" stroke="none" 
	d="
M21.333595,102.948227 
	C21.101961,102.320702 21.202225,101.709206 21.302490,101.097717 
	C21.842642,101.527107 22.382793,101.956505 22.958344,102.690369 
	C22.550995,102.984650 22.108244,102.974464 21.333595,102.948227 
z"/>
<path fill="#C06A29" opacity="1.000000" stroke="none" 
	d="
M34.934460,104.681740 
	C34.536659,104.980919 34.112736,104.987259 33.372314,104.961029 
	C33.363674,104.428665 33.671535,103.928864 33.979401,103.429062 
	C34.289051,103.749008 34.598694,104.068962 34.934460,104.681740 
z"/>
<path fill="#964309" opacity="1.000000" stroke="none" 
	d="
M43.982380,99.729660 
	C43.547337,100.026878 43.095676,100.016266 42.304516,100.003067 
	C41.972137,99.557556 41.979267,99.114639 42.238899,98.336311 
	C42.491398,98.000908 42.978348,97.978394 42.978348,97.978394 
	C43.307487,98.459541 43.636627,98.940681 43.982380,99.729660 
z"/>
<path fill="#AD571B" opacity="1.000000" stroke="none" 
	d="
M42.873749,97.761627 
	C42.978348,97.978394 42.491398,98.000908 42.247726,98.004196 
	C42.004055,98.007492 41.991898,97.513123 41.985790,97.266129 
	C42.305752,97.099945 42.568905,97.275185 42.873749,97.761627 
z"/>
<path fill="#EDE8E7" opacity="1.000000" stroke="none" 
	d="
M67.400635,110.016022 
	C67.260017,109.402710 67.521973,108.889175 67.984177,107.801811 
	C69.461578,106.513275 70.738724,105.798569 72.235153,105.327301 
	C73.291023,104.972046 74.127625,104.373360 75.066010,103.704201 
	C75.167801,103.633720 75.401352,103.715996 75.806107,103.824646 
	C77.254883,105.229477 78.298897,106.525658 79.311760,107.783165 
	C82.417503,107.625252 86.600723,104.630844 86.657440,110.964424 
	C85.214226,111.397675 84.114639,111.754601 82.617722,112.041794 
	C81.148392,112.028137 80.076370,112.084221 79.004356,112.140320 
	C75.270638,111.465477 71.536926,110.790634 67.400635,110.016022 
z"/>
<path fill="#9D5425" opacity="1.000000" stroke="none" 
	d="
M78.942680,112.439590 
	C80.076370,112.084221 81.148392,112.028137 82.598648,112.392761 
	C81.681046,114.539360 80.385208,116.265236 78.817444,117.993698 
	C78.364311,118.001419 78.183098,118.006546 78.001884,118.011673 
	C76.722878,116.839508 75.443878,115.667343 73.491135,113.877724 
	C75.654282,113.420662 77.267639,113.079765 78.942680,112.439590 
z"/>
<path fill="#AB642D" opacity="1.000000" stroke="none" 
	d="
M78.005280,118.362907 
	C78.183098,118.006546 78.364311,118.001419 78.894943,118.256454 
	C79.508827,118.995125 79.773293,119.473625 80.037750,119.952118 
	C80.028435,120.125977 80.019127,120.299835 79.994499,120.734344 
	C79.322350,120.234718 78.665504,119.474426 78.005280,118.362907 
z"/>
<path fill="#B76320" opacity="1.000000" stroke="none" 
	d="
M15.992815,107.012451 
	C16.586643,107.830429 17.180471,108.648399 17.907852,109.742104 
	C17.566345,110.334335 17.091288,110.650833 16.110092,110.735382 
	C14.073133,111.335716 12.542310,112.168007 11.011490,113.000305 
	C9.715787,114.736717 8.420081,116.473129 7.091996,118.529839 
	C6.067625,116.499809 5.075634,114.149483 4.416684,111.392776 
	C5.835045,109.313057 6.920366,107.639709 8.243887,105.599098 
	C10.458455,106.003021 13.225635,106.507736 15.992815,107.012451 
z"/>
<path fill="#AC571D" opacity="1.000000" stroke="none" 
	d="
M11.367582,112.998810 
	C12.542310,112.168007 14.073133,111.335716 15.811216,110.753952 
	C14.586877,111.668747 13.155277,112.333031 11.367582,112.998810 
z"/>
<path fill="#AF5518" opacity="1.000000" stroke="none" 
	d="
M15.993273,106.673271 
	C13.225635,106.507736 10.458455,106.003021 8.243887,105.599098 
	C6.920366,107.639709 5.835045,109.313057 4.362635,111.003387 
	C3.650709,109.307655 3.325872,107.594955 3.017712,105.489227 
	C3.707935,104.492699 4.634230,104.015450 5.010007,103.263191 
	C6.418934,100.442749 8.114080,100.593277 10.534993,102.086617 
	C11.460917,102.657768 13.061443,102.135292 14.677485,102.078941 
	C15.000572,102.479073 15.000726,102.911461 14.757364,103.778870 
	C14.236510,104.559631 13.959171,104.905373 13.681830,105.251106 
	C13.890786,105.362488 14.099744,105.473869 14.308701,105.585251 
	C14.541187,105.056427 14.773673,104.527603 15.006159,103.998779 
	C15.335350,104.777214 15.664540,105.555649 15.993273,106.673271 
z"/>
<path fill="#AC5C19" opacity="1.000000" stroke="none" 
	d="
M106.347443,132.964417 
	C104.596306,132.664688 103.190559,132.330078 101.399139,131.994659 
	C100.168427,129.780930 99.323364,127.568008 98.334335,124.894615 
	C98.792099,123.286911 99.393837,122.139679 100.051529,121.341141 
	C101.734192,122.460518 103.360924,123.231194 105.245079,124.003067 
	C105.674118,124.003632 105.845734,124.003006 106.345512,124.001297 
	C107.111031,123.999222 107.548393,123.998245 108.002342,124.380264 
	C109.344391,125.515984 110.669838,126.268715 111.995285,127.021446 
	C113.164314,131.626297 108.573967,131.062180 106.347443,132.964417 
z"/>
<path fill="#9E4C0E" opacity="1.000000" stroke="none" 
	d="
M112.331985,127.008720 
	C110.669838,126.268715 109.344391,125.515984 108.008743,124.011139 
	C109.001793,120.839752 110.005043,118.420486 111.008301,116.001221 
	C111.646927,116.466202 112.285553,116.931183 112.957062,117.723961 
	C112.892738,119.170418 112.795525,120.289085 112.821632,121.709625 
	C113.212051,122.983948 113.682953,123.957558 113.677353,124.928421 
	C113.673355,125.619530 113.027878,126.306931 112.331985,127.008720 
z"/>
<path fill="#B96525" opacity="1.000000" stroke="none" 
	d="
M123.639877,127.998993 
	C124.804031,127.753227 125.598045,127.505341 126.682648,127.133156 
	C129.131577,129.947678 129.377396,132.049713 124.411545,132.050659 
	C121.968231,130.403687 119.889305,128.736984 117.810387,127.070274 
	C118.089668,126.747299 118.368958,126.424316 118.648239,126.101334 
	C120.188744,126.733177 121.729240,127.365021 123.639877,127.998993 
z"/>
<path fill="#9E4C0E" opacity="1.000000" stroke="none" 
	d="
M114.086388,122.401840 
	C114.687065,122.511726 115.319328,122.938797 116.017677,123.677048 
	C115.428497,123.565155 114.773239,123.142090 114.086388,122.401840 
z"/>
<path fill="#AB642D" opacity="1.000000" stroke="none" 
	d="
M108.134872,138.916840 
	C107.959099,138.998123 107.982399,138.499695 107.990326,138.250336 
	C108.172813,138.172806 108.361664,138.333786 108.508354,138.526810 
	C108.533813,138.560287 108.381073,138.729202 108.134872,138.916840 
z"/>
<path fill="#B05B1C" opacity="1.000000" stroke="none" 
	d="
M110.744781,115.985962 
	C110.005043,118.420486 109.001793,120.839752 107.992142,123.628143 
	C107.548393,123.998245 107.111031,123.999222 106.254265,123.827896 
	C105.552452,123.771019 105.270058,123.886444 104.987656,124.001877 
	C103.360924,123.231194 101.734192,122.460518 100.053268,120.926407 
	C100.291397,117.427002 98.628105,116.464539 96.450218,117.104378 
	C94.990707,117.533157 92.002106,114.877670 92.147163,119.166832 
	C92.510422,119.622757 92.781631,119.834435 93.038597,120.440720 
	C93.016548,121.887939 93.008736,122.940536 93.000931,123.993141 
	C91.554764,123.682091 90.108589,123.371048 88.330261,123.031342 
	C87.998856,121.245949 87.999611,119.489204 88.291077,117.238510 
	C89.628365,114.313507 91.818298,114.132240 94.022697,113.979446 
	C95.831558,113.580200 97.640411,113.180962 99.956573,113.164024 
	C102.224083,114.491898 103.984276,115.437477 106.450287,116.762215 
	C106.917694,116.651543 108.436218,116.292000 109.954735,115.932457 
	C110.130249,115.945213 110.305756,115.957962 110.744781,115.985962 
z"/>
<path fill="#C67022" opacity="1.000000" stroke="none" 
	d="
M92.055115,118.922592 
	C92.002106,114.877670 94.990707,117.533157 96.450218,117.104378 
	C98.628105,116.464539 100.291397,117.427002 99.997322,120.577713 
	C99.393837,122.139679 98.792099,123.286911 98.085800,124.707794 
	C96.548256,124.744682 95.115273,124.507927 93.341599,124.132156 
	C93.008736,122.940536 93.016548,121.887939 93.297729,120.400726 
	C93.770126,119.772896 93.969154,119.579666 94.168175,119.386444 
	C93.463821,119.231827 92.759468,119.077209 92.055115,118.922592 
z"/>
<path fill="#93420F" opacity="1.000000" stroke="none" 
	d="
M93.986526,113.669334 
	C91.818298,114.132240 89.628365,114.313507 88.298241,116.896194 
	C85.546021,117.874619 83.077354,118.701416 80.323219,119.740173 
	C79.773293,119.473625 79.508827,118.995125 79.166870,118.253876 
	C80.385208,116.265236 81.681046,114.539360 82.995964,112.462509 
	C84.114639,111.754601 85.214226,111.397675 87.004852,111.133820 
	C89.422523,111.461815 91.149147,111.696732 92.875778,111.931656 
	C93.233971,112.407509 93.592163,112.883369 93.986526,113.669334 
z"/>
<path fill="#612D13" opacity="1.000000" stroke="none" 
	d="
M135.021713,130.497375 
	C136.756363,130.397675 138.493027,130.702927 140.618195,131.005341 
	C139.243057,132.313446 137.479385,133.624390 135.389465,134.952545 
	C135.050034,133.613968 135.036865,132.258163 135.021713,130.497375 
z"/>
<path fill="#612D13" opacity="1.000000" stroke="none" 
	d="
M131.321060,139.970688 
	C131.557632,138.411697 131.603577,136.218277 134.641098,136.981567 
	C133.868118,137.955368 132.770401,138.948349 131.321060,139.970688 
z"/>
<path fill="#8C4D2A" opacity="1.000000" stroke="none" 
	d="
M125.241554,142.817093 
	C125.124641,142.596786 125.307678,142.356888 125.784569,142.086533 
	C125.906326,142.305023 125.727356,142.552170 125.241554,142.817093 
z"/>
<path fill="#8C4D2A" opacity="1.000000" stroke="none" 
	d="
M126.232971,141.982147 
	C126.253059,141.865158 126.513916,141.737488 126.863808,141.764160 
	C126.952835,141.918503 126.473740,141.971451 126.232971,141.982147 
z"/>
<path fill="#612D13" opacity="1.000000" stroke="none" 
	d="
M129.278870,140.858902 
	C129.135544,140.637375 129.298813,140.391815 129.780090,140.135956 
	C129.897934,140.347092 129.727051,140.583481 129.278870,140.858902 
z"/>
<path fill="#C66F1E" opacity="1.000000" stroke="none" 
	d="
M17.025845,87.615211 
	C16.512007,87.963852 16.080400,87.971466 15.324593,87.984695 
	C15.000389,87.990311 15.003606,87.502083 15.010208,86.882072 
	C15.013968,85.511330 15.011126,84.760590 15.008284,84.009857 
	C16.723944,84.005913 18.439606,84.001968 20.584793,83.995293 
	C19.712240,85.086441 18.410158,86.180313 17.025845,87.615211 
z"/>
<path fill="#B25B1B" opacity="1.000000" stroke="none" 
	d="
M14.896830,83.790497 
	C15.011126,84.760590 15.013968,85.511330 15.010235,86.637955 
	C11.155404,87.242439 13.597731,84.792175 13.737129,83.220345 
	C14.321237,83.108261 14.584482,83.295982 14.896830,83.790497 
z"/>
<path fill="#B25B1B" opacity="1.000000" stroke="none" 
	d="
M14.634662,89.001495 
	C14.833437,89.860695 14.671886,90.730812 14.243276,91.807228 
	C13.370326,91.462189 12.764435,90.910843 12.158544,90.359505 
	C12.863808,89.910469 13.569072,89.461441 14.634662,89.001495 
z"/>
<path fill="#D88E18" opacity="1.000000" stroke="none" 
	d="
M66.966919,90.013657 
	C66.898102,88.598709 67.077675,87.114868 66.708313,85.783287 
	C65.960373,83.086884 64.914948,80.473015 63.987373,77.411697 
	C64.150070,76.993736 64.317566,76.989174 64.735970,76.972092 
	C66.080978,76.491310 67.177666,76.028969 68.268379,75.552956 
	C69.154068,75.166412 70.032600,74.763458 70.958458,75.083023 
	C70.218712,82.320961 76.696716,80.773628 79.028404,82.783333 
	C78.641060,86.178856 78.486710,89.025475 77.939575,91.794479 
	C77.584465,93.591713 76.656403,95.275742 75.648056,97.006744 
	C72.546173,97.522957 69.781281,98.042923 67.436264,98.483932 
	C67.331276,96.876434 67.138206,93.920502 66.953094,90.726891 
	C66.961044,90.489220 66.966919,90.013657 66.966919,90.013657 
z"/>
<path fill="#DA901F" opacity="1.000000" stroke="none" 
	d="
M75.985062,97.010490 
	C76.656403,95.275742 77.584465,93.591713 77.939575,91.794479 
	C78.486710,89.025475 78.641060,86.178856 79.028404,82.783333 
	C76.696716,80.773628 70.218712,82.320961 71.005325,75.391617 
	C72.719360,76.107956 74.430672,77.230934 76.141991,78.353920 
	C76.133339,78.090485 76.124687,77.827049 76.116035,77.563622 
	C79.169815,78.014946 82.223587,78.466263 85.645920,78.952011 
	C89.860962,80.410835 90.299515,84.454872 86.711639,89.687141 
	C85.191971,92.759193 84.087776,95.390366 82.986679,98.399506 
	C82.999046,99.534958 83.008316,100.292442 82.816223,101.289688 
	C81.074097,101.041100 79.533318,100.552750 77.966278,99.743202 
	C77.288368,98.618164 76.636719,97.814331 75.985062,97.010490 
z"/>
<path fill="#C57B36" opacity="1.000000" stroke="none" 
	d="
M82.193939,67.932411 
	C83.049019,66.950180 84.172775,66.003410 85.638901,65.017502 
	C85.235954,65.977394 84.490646,66.976433 83.374619,67.985825 
	C82.823463,67.986740 82.643044,67.977310 82.193939,67.932411 
z"/>
<path fill="#AB6B2D" opacity="1.000000" stroke="none" 
	d="
M55.638790,83.030975 
	C56.966404,84.744408 57.979465,86.509346 58.993401,88.641724 
	C56.993263,87.515152 53.498341,86.946259 55.638790,83.030975 
z"/>
<path fill="#AB6B2D" opacity="1.000000" stroke="none" 
	d="
M66.575630,90.010468 
	C66.966919,90.013657 66.961044,90.489220 66.632805,90.765121 
	C65.207657,91.701897 64.110748,92.362762 63.013832,93.023621 
	C63.013832,93.023621 62.986023,93.014244 62.972801,93.004944 
	C62.722439,92.204369 62.485294,91.413094 62.117561,90.335144 
	C62.165112,90.035278 62.343246,90.022079 62.789268,89.989555 
	C64.099556,89.982582 65.141953,89.994934 66.575630,90.010468 
z"/>
<path fill="#B98142" opacity="1.000000" stroke="none" 
	d="
M77.992538,100.064407 
	C79.533318,100.552750 81.074097,101.041100 83.068207,101.384018 
	C83.990311,101.504555 84.459076,101.770531 85.107681,102.281509 
	C85.855621,102.701050 86.423729,102.875580 87.097290,103.260361 
	C87.400322,103.729439 87.655357,103.904594 88.309578,103.977921 
	C89.095512,101.971962 89.539734,99.984154 89.983955,97.996346 
	C90.467308,97.113373 90.950653,96.230400 91.789185,95.607124 
	C92.137131,98.675011 92.133781,101.483223 92.121643,104.291389 
	C92.107910,107.465942 90.941849,108.659348 87.855347,106.884064 
	C85.423576,105.485367 83.024765,103.885040 80.398094,103.026909 
	C78.960945,102.557411 77.081398,103.442024 75.401352,103.715996 
	C75.401352,103.715996 75.167801,103.633720 74.734428,103.722839 
	C73.539330,104.235931 72.777603,104.659897 72.015869,105.083862 
	C70.738724,105.798569 69.461578,106.513275 68.048813,107.521103 
	C64.266190,108.346764 62.841591,106.630386 63.052227,103.119041 
	C63.178318,101.017105 63.151058,98.905960 63.668304,96.489487 
	C64.423561,96.914551 64.997192,97.674835 64.935493,98.379486 
	C64.516624,103.162735 66.716209,103.790283 70.642136,102.294548 
	C73.029030,101.385170 75.538261,100.796913 77.992538,100.064407 
z"/>
<path fill="#CA771A" opacity="1.000000" stroke="none" 
	d="
M77.966278,99.743210 
	C75.538261,100.796913 73.029030,101.385170 70.642136,102.294548 
	C66.716209,103.790283 64.516624,103.162735 64.935493,98.379486 
	C64.997192,97.674835 64.423561,96.914551 63.797539,96.044327 
	C63.351067,95.186279 63.250927,94.463898 63.082314,93.382568 
	C64.110748,92.362762 65.207657,91.701897 66.624855,91.002792 
	C67.138206,93.920502 67.331276,96.876434 67.436264,98.483932 
	C69.781281,98.042923 72.546173,97.522957 75.648056,97.006744 
	C76.636719,97.814331 77.288368,98.618164 77.966278,99.743210 
z"/>
<path fill="#F7E5D3" opacity="1.000000" stroke="none" 
	d="
M75.806107,103.824646 
	C77.081398,103.442024 78.960945,102.557411 80.398094,103.026909 
	C83.024765,103.885040 85.423576,105.485367 87.855347,106.884064 
	C90.941849,108.659348 92.107910,107.465942 92.121643,104.291389 
	C92.133781,101.483223 92.137131,98.675011 92.022614,95.417206 
	C91.950584,94.247513 92.000298,93.527435 92.069656,92.445312 
	C93.083900,91.667847 94.078506,91.252426 95.389313,90.753952 
	C95.302078,95.762642 94.898636,100.854370 94.838028,106.011658 
	C94.513893,107.809448 93.846931,109.541695 93.027870,111.602798 
	C91.149147,111.696732 89.422523,111.461815 87.348480,111.057495 
	C86.600723,104.630844 82.417503,107.625252 79.311760,107.783165 
	C78.298897,106.525658 77.254883,105.229477 75.806107,103.824646 
z"/>
<path fill="#D58816" opacity="1.000000" stroke="none" 
	d="
M87.967865,103.996071 
	C87.655357,103.904594 87.400322,103.729439 86.934067,102.997650 
	C86.086205,102.361961 85.507019,102.199234 84.927841,102.036507 
	C84.459076,101.770531 83.990311,101.504555 83.269562,101.144257 
	C83.008316,100.292442 82.999046,99.534958 83.281639,98.182419 
	C85.379997,97.057983 87.186485,96.528587 88.992981,95.999191 
	C88.992409,96.444893 88.991837,96.890587 88.708557,97.930321 
	C88.273193,100.348259 88.120529,102.172165 87.967865,103.996071 
z"/>
<path fill="#C47913" opacity="1.000000" stroke="none" 
	d="
M88.996384,95.621918 
	C87.186485,96.528587 85.379997,97.057983 83.278534,97.804459 
	C84.087776,95.390366 85.191971,92.759193 86.642906,90.063950 
	C87.659683,91.748146 88.329735,93.496399 88.996384,95.621918 
z"/>
<path fill="#C47913" opacity="1.000000" stroke="none" 
	d="
M88.309578,103.977921 
	C88.120529,102.172165 88.273193,100.348259 88.709808,98.264603 
	C88.993767,98.004845 89.489052,97.999954 89.736504,97.998154 
	C89.539734,99.984154 89.095512,101.971962 88.309578,103.977921 
z"/>
<path fill="#E7E0DC" opacity="1.000000" stroke="none" 
	d="
M100.221588,91.066116 
	C100.436241,90.663521 100.898529,90.358002 101.650848,90.046486 
	C101.450317,90.414726 100.959770,90.788963 100.221588,91.066116 
z"/>
<path fill="#E7E0DC" opacity="1.000000" stroke="none" 
	d="
M102.258865,89.841431 
	C102.130859,89.633781 102.293762,89.394112 102.739120,89.112259 
	C102.875114,89.319832 102.717857,89.566277 102.258865,89.841431 
z"/>
<path fill="#C97622" opacity="1.000000" stroke="none" 
	d="
M88.057922,40.432381 
	C88.683876,38.559353 89.306770,37.124588 89.969406,35.342392 
	C90.009155,34.994965 90.501373,34.997364 90.903671,35.351524 
	C92.444168,37.850727 91.255615,42.065685 96.272827,41.212849 
	C97.359337,42.969044 98.183174,44.505962 99.007004,46.042885 
	C99.004677,46.476398 99.002350,46.909908 98.999336,47.921429 
	C98.998802,48.667961 98.998947,48.836487 98.999084,49.005009 
	C98.999359,49.445660 98.999641,49.886307 99.000565,50.657188 
	C97.438187,49.273834 95.875153,47.560253 94.312119,45.846668 
	C93.984268,46.082325 93.656418,46.317982 93.328568,46.553638 
	C93.880081,48.484631 94.431595,50.415627 94.975357,52.737038 
	C94.539482,53.075954 94.111351,53.024448 93.362732,52.931854 
	C89.151337,49.808681 86.982292,46.012161 88.057922,40.432381 
z"/>
<path fill="#C26F20" opacity="1.000000" stroke="none" 
	d="
M110.950127,44.610825 
	C107.267273,45.004395 103.539398,45.004910 99.413521,44.604225 
	C99.342262,40.800793 99.668991,37.398552 99.995728,33.996315 
	C100.834465,35.907085 101.673203,37.817856 102.519936,39.746853 
	C103.006767,39.032780 103.620354,38.132797 104.233940,37.232811 
	C105.132393,38.188950 106.030846,39.145084 107.163284,40.350224 
	C107.611397,39.575417 108.187294,38.579670 109.171066,36.878696 
	C109.839622,39.708271 110.372360,41.963020 110.950127,44.610825 
z"/>
<path fill="#B46011" opacity="1.000000" stroke="none" 
	d="
M100.023285,33.676971 
	C99.668991,37.398552 99.342262,40.800793 99.027710,44.607201 
	C99.032471,45.183056 99.025055,45.354736 99.012329,45.784645 
	C98.183174,44.505962 97.359337,42.969044 96.299973,40.880905 
	C96.039993,38.884151 96.015541,37.438622 95.991089,35.993088 
	C97.524490,34.161686 99.057892,32.330280 100.800735,30.745707 
	C100.690399,31.780901 100.370621,32.569263 100.023285,33.676971 
z"/>
<path fill="#C26F20" opacity="1.000000" stroke="none" 
	d="
M99.166809,48.914848 
	C98.998947,48.836487 98.998802,48.667961 98.998871,48.246567 
	C99.110901,48.270695 99.222725,48.547691 99.166809,48.914848 
z"/>
<path fill="#A85723" opacity="1.000000" stroke="none" 
	d="
M94.049301,25.689533 
	C93.867157,25.985559 93.693909,25.989395 93.260735,25.993752 
	C91.445107,21.886421 89.889412,17.778568 88.162460,13.335359 
	C89.470032,12.417407 90.948837,11.834811 92.755371,11.140755 
	C93.362656,12.447927 93.642220,13.866561 93.958755,15.650787 
	C94.326561,18.440643 94.657402,20.864906 94.989777,23.658089 
	C94.680267,24.483788 94.369232,24.940567 94.049301,25.689533 
z"/>
<path fill="#C4701A" opacity="1.000000" stroke="none" 
	d="
M95.675156,35.951408 
	C96.015541,37.438622 96.039993,38.884151 96.037300,40.661629 
	C91.255615,42.065685 92.444168,37.850727 91.149780,35.352882 
	C92.448807,35.303299 93.904015,35.606510 95.675156,35.951408 
z"/>
<path fill="#9C4B0F" opacity="1.000000" stroke="none" 
	d="
M109.969292,115.563889 
	C108.436218,116.292000 106.917694,116.651543 106.450287,116.762215 
	C103.984276,115.437477 102.224083,114.491898 100.247559,113.271271 
	C102.435013,111.998665 104.838783,111.001114 107.623856,110.005615 
	C108.664726,111.736893 109.324287,113.466110 109.969292,115.563889 
z"/>
<path fill="#A76936" opacity="1.000000" stroke="none" 
	d="
M86.289207,21.969385 
	C85.821373,20.815208 85.647797,19.629284 85.732330,18.234932 
	C86.620712,18.478146 87.250977,18.929789 87.919899,19.940939 
	C87.958565,20.500448 87.969345,20.982229 87.969345,20.982231 
	C87.507385,21.300701 87.045425,21.619169 86.289207,21.969385 
z"/>
<path fill="#995122" opacity="1.000000" stroke="none" 
	d="
M88.139542,20.900036 
	C87.969345,20.982229 87.958565,20.500448 87.960907,20.259666 
	C88.078751,20.285204 88.194244,20.551523 88.139542,20.900036 
z"/>
<path fill="#964309" opacity="1.000000" stroke="none" 
	d="
M44.322258,102.839157 
	C44.034077,102.507088 44.016163,102.074806 43.998062,101.317337 
	C44.463932,100.994034 44.929981,100.995918 45.747169,101.008224 
	C45.596378,101.592064 45.094448,102.165504 44.322258,102.839157 
z"/>
<path fill="#F7E5D3" opacity="1.000000" stroke="none" 
	d="
M72.235153,105.327301 
	C72.777603,104.659897 73.539330,104.235931 74.632637,103.793320 
	C74.127625,104.373360 73.291023,104.972046 72.235153,105.327301 
z"/>
<path fill="#B96923" opacity="1.000000" stroke="none" 
	d="
M15.003046,103.999390 
	C14.773673,104.527603 14.541187,105.056427 14.308701,105.585251 
	C14.099744,105.473869 13.890786,105.362488 13.681830,105.251106 
	C13.959171,104.905373 14.236510,104.559631 14.757564,104.103638 
	C15.001277,103.993393 14.999932,104.000000 15.003046,103.999390 
z"/>
<path fill="#9E4C0E" opacity="1.000000" stroke="none" 
	d="
M105.245079,124.003067 
	C105.270058,123.886444 105.552452,123.771019 105.926102,123.828987 
	C105.845734,124.003006 105.674118,124.003632 105.245079,124.003067 
z"/>
<path fill="#9D5425" opacity="1.000000" stroke="none" 
	d="
M92.147163,119.166840 
	C92.759468,119.077209 93.463821,119.231827 94.168175,119.386444 
	C93.969154,119.579666 93.770126,119.772896 93.311974,120.006119 
	C92.781631,119.834435 92.510422,119.622757 92.147163,119.166840 
z"/>
<path fill="#C47913" opacity="1.000000" stroke="none" 
	d="
M85.107681,102.281509 
	C85.507019,102.199234 86.086205,102.361961 86.828606,102.787407 
	C86.423729,102.875580 85.855621,102.701050 85.107681,102.281509 
z"/>
</svg>